<svg width="32" height="40" viewBox="0 0 32 40" fill="none" xmlns="http://www.w3.org/2000/svg">
<path opacity="0.1" d="M23.4587 38.4375H4.63757C3.12983 38.4375 2.01272 37.0341 2.35358 35.5654C3.20046 31.9157 5.90077 28.7404 9.14671 27.06C9.92937 26.663 10.5681 26.9056 10.5681 27.7832V31.25C8.92749 32.2135 7.59937 33.4635 7.04108 35.5653C6.65398 37.0225 7.81733 38.4375 9.32507 38.4375H23.4587ZM18.2048 1.86992C17.4403 1.66526 16.6523 1.5619 15.861 1.5625C10.8775 1.5625 6.83757 5.60242 6.83757 10.5859H11.5251C11.5251 6.41313 14.3576 2.90188 18.2048 1.86992Z" fill="white"/>
<path d="M21.3493 27.7769C21.3493 29.4793 19.9693 30.8594 18.2668 30.8594H13.6505C11.9481 30.8594 10.568 29.4793 10.568 27.7769M29.7087 38.4375C29.7087 33.5054 26.8875 29.1485 22.7707 27.06C21.9881 26.663 21.3493 26.9056 21.3493 27.7832V33.125M10.5681 33.125V27.7832C10.5681 26.9056 9.92934 26.6629 9.14668 27.06C5.90075 28.7404 3.20043 31.9157 2.35356 35.5654C2.01278 37.0341 3.12989 38.4375 4.63762 38.4375H23.4587M5.02122 11.0938H27.0525M24.8845 10.5859C24.8845 5.60242 20.8446 1.5625 15.8611 1.5625C10.8775 1.5625 6.83762 5.60242 6.83762 10.5859" stroke="white" stroke-width="3" stroke-miterlimit="10" stroke-linecap="round" stroke-linejoin="round"/>
<path d="M24.3281 16.0938C23.0802 19.556 19.7244 22.0312 15.832 22.0312C11.9573 22.0312 8.63586 19.4534 7.375 16.0156" stroke="#00AFE4" stroke-width="3" stroke-miterlimit="10" stroke-linecap="round" stroke-linejoin="round"/>
</svg>
