<svg width="40" height="40" viewBox="0 0 40 40" fill="none" xmlns="http://www.w3.org/2000/svg">
<path opacity="0.1" d="M6.25 35.3125C6.25 33.5866 7.64906 32.1875 9.375 32.1875H4.6875C2.96164 32.1875 1.5625 33.5866 1.5625 35.3125C1.5625 37.0384 2.96156 38.4375 4.6875 38.4375H9.375C7.64914 38.4375 6.25 37.0384 6.25 35.3125Z" fill="white"/>
<path d="M20 7.8125C21.7259 7.8125 23.125 6.41339 23.125 4.6875C23.125 2.96161 21.7259 1.5625 20 1.5625C18.2741 1.5625 16.875 2.96161 16.875 4.6875C16.875 6.41339 18.2741 7.8125 20 7.8125Z" stroke="white" stroke-width="3" stroke-miterlimit="10" stroke-linecap="round" stroke-linejoin="round"/>
<path d="M23.125 17.1875H16.875C15.1491 17.1875 13.75 15.7884 13.75 14.0625C13.75 12.3366 15.1491 10.9375 16.875 10.9375H23.125C24.8509 10.9375 26.25 12.3366 26.25 14.0625C26.25 15.7884 24.8509 17.1875 23.125 17.1875Z" stroke="white" stroke-width="3" stroke-miterlimit="10" stroke-linecap="round" stroke-linejoin="round"/>
<path d="M32.1875 29.0625C33.9134 29.0625 35.3125 27.6634 35.3125 25.9375C35.3125 24.2116 33.9134 22.8125 32.1875 22.8125C30.4616 22.8125 29.0625 24.2116 29.0625 25.9375C29.0625 27.6634 30.4616 29.0625 32.1875 29.0625Z" stroke="white" stroke-width="3" stroke-miterlimit="10" stroke-linecap="round" stroke-linejoin="round"/>
<path d="M35.3125 38.4375H29.0625C27.3366 38.4375 25.9375 37.0384 25.9375 35.3125C25.9375 33.5866 27.3366 32.1875 29.0625 32.1875H35.3125C37.0384 32.1875 38.4375 33.5866 38.4375 35.3125C38.4375 37.0384 37.0384 38.4375 35.3125 38.4375Z" stroke="white" stroke-width="3" stroke-miterlimit="10" stroke-linecap="round" stroke-linejoin="round"/>
<path d="M7.8125 29.0625C9.53839 29.0625 10.9375 27.6634 10.9375 25.9375C10.9375 24.2116 9.53839 22.8125 7.8125 22.8125C6.08661 22.8125 4.6875 24.2116 4.6875 25.9375C4.6875 27.6634 6.08661 29.0625 7.8125 29.0625Z" stroke="white" stroke-width="3" stroke-miterlimit="10" stroke-linecap="round" stroke-linejoin="round"/>
<path d="M10.9375 38.4375H4.6875C2.96164 38.4375 1.5625 37.0384 1.5625 35.3125C1.5625 33.5866 2.96164 32.1875 4.6875 32.1875H10.9375C12.6634 32.1875 14.0625 33.5866 14.0625 35.3125C14.0625 37.0384 12.6634 38.4375 10.9375 38.4375Z" stroke="white" stroke-width="3" stroke-miterlimit="10" stroke-linecap="round" stroke-linejoin="round"/>
<path d="M20 22.8125V25.9375M16.875 25.9375H23.125" stroke="#00AFE4" stroke-width="3" stroke-miterlimit="10" stroke-linecap="round" stroke-linejoin="round"/>
</svg>
