<svg width="40" height="40" viewBox="0 0 40 40" fill="none" xmlns="http://www.w3.org/2000/svg">
<path opacity="0.1" d="M13.6697 33.0744C12.8443 32.7002 11.9614 32.5 11.0552 32.5H9.375C7.64914 32.5 6.25 31.1009 6.25 29.375C6.25 27.6491 7.64914 26.25 9.375 26.25H4.6875C2.96164 26.25 1.5625 27.6491 1.5625 29.375C1.5625 31.1009 2.96164 32.5 4.6875 32.5H6.36773C7.27398 32.5 8.15688 32.7002 8.98227 33.0744C10.9734 33.9767 14.9843 35.625 20 35.625C20.809 35.625 21.5913 35.5816 22.3438 35.5059C18.431 35.1123 15.3398 33.8312 13.6697 33.0744Z" fill="white"/>
<path d="M23.125 7.81258C30.257 9.26023 35.3125 15.5658 35.3125 23.125V26.25M35.3125 26.25C37.0384 26.25 38.4375 27.6491 38.4375 29.375C38.4375 31.1009 37.0384 32.5 35.3125 32.5H33.6323C32.7261 32.5 31.8432 32.7002 31.0178 33.0743C29.0266 33.9767 25.0157 35.625 20 35.625C14.9843 35.625 10.9734 33.9767 8.98227 33.0743C8.15687 32.7002 7.27398 32.5 6.36773 32.5H4.6875C2.96164 32.5 1.5625 31.1009 1.5625 29.375C1.5625 27.6491 2.96164 26.25 4.6875 26.25M35.3125 26.25H29.375M4.6875 26.25V23.125C4.6875 15.5658 9.74297 9.26031 16.875 7.81258M4.6875 26.25H10.625M16.875 16.875V7.5C16.875 5.77414 18.2741 4.375 20 4.375C21.7259 4.375 23.125 5.77414 23.125 7.5V16.875" stroke="white" stroke-width="3" stroke-miterlimit="10" stroke-linecap="round" stroke-linejoin="round"/>
<path d="M16.875 26.25H23.125" stroke="#00AFE4" stroke-width="3" stroke-miterlimit="10" stroke-linecap="round" stroke-linejoin="round"/>
</svg>
