<svg width="40" height="40" viewBox="0 0 40 40" fill="none" xmlns="http://www.w3.org/2000/svg">
<g clip-path="url(#clip0_249_719)">
<path d="M16.732 20.224C16.1533 20.224 15.7053 20.0653 15.388 19.748C15.0707 19.412 14.912 18.936 14.912 18.32V16.108H13.652C13.2227 16.108 12.8867 16.0053 12.644 15.8C12.42 15.576 12.308 15.268 12.308 14.876C12.308 14.484 12.42 14.1853 12.644 13.98C12.8867 13.756 13.2227 13.644 13.652 13.644H14.912V11.74H13.652C13.2227 11.74 12.8867 11.6373 12.644 11.432C12.42 11.208 12.308 10.9 12.308 10.508C12.308 10.116 12.42 9.81733 12.644 9.612C12.8867 9.388 13.2227 9.276 13.652 9.276H14.912V2.052C14.912 1.47333 15.0613 1.03467 15.36 0.735999C15.6773 0.418666 16.1253 0.259999 16.704 0.259999H21.604C23.0413 0.259999 24.2547 0.502666 25.244 0.987999C26.252 1.47333 27.008 2.15467 27.512 3.032C28.0347 3.90933 28.296 4.936 28.296 6.112C28.296 7.25067 28.0347 8.24 27.512 9.08C26.9893 9.92 26.2427 10.5733 25.272 11.04C24.3013 11.5067 23.1253 11.74 21.744 11.74H18.552V13.644H21.912C22.3413 13.644 22.668 13.756 22.892 13.98C23.1347 14.1853 23.256 14.484 23.256 14.876C23.256 15.268 23.1347 15.576 22.892 15.8C22.668 16.0053 22.3413 16.108 21.912 16.108H18.552V18.32C18.552 18.936 18.3933 19.412 18.076 19.748C17.7773 20.0653 17.3293 20.224 16.732 20.224ZM18.496 9.276H21.156C22.332 9.276 23.2373 9.052 23.872 8.604C24.5067 8.156 24.824 7.40933 24.824 6.364C24.824 5.31867 24.5067 4.544 23.872 4.04C23.256 3.536 22.3507 3.284 21.156 3.284H18.496V9.276Z" fill="#00AFE4"/>
<path opacity="0.1" d="M9.375 38.4375H4.6875C2.96172 38.4375 1.5625 37.0383 1.5625 35.3125V32.1875C1.5625 30.4617 2.96172 29.0625 4.6875 29.0625H9.375C7.64922 29.0625 6.25 30.4617 6.25 32.1875V35.3125C6.25 37.0383 7.64922 38.4375 9.375 38.4375Z" fill="white"/>
<path d="M32.8818 20.8483C33.4547 20.1402 34.3307 19.6875 35.3125 19.6875C37.0384 19.6875 38.4375 21.0866 38.4375 22.8125C38.4375 23.5798 38.1609 24.2827 37.7402 24.7794L30.1016 34.957L30.1936 34.8433C28.4774 37.0316 25.8091 38.4375 22.8125 38.4375H4.6875C2.96164 38.4375 1.5625 37.0384 1.5625 35.3125V32.1875C1.5625 30.4616 2.96164 29.0625 4.6875 29.0625H10.3125C12.5625 27.0501 15.4752 25.9375 18.4938 25.9375H22.8125C24.5384 25.9375 25.9375 27.3366 25.9375 29.0625C25.9375 30.7884 24.5384 32.1875 22.8125 32.1875H16.5625M30.6139 23.8619L32.7414 21.0272" stroke="white" stroke-width="3" stroke-miterlimit="10" stroke-linecap="round" stroke-linejoin="round"/>
</g>
<defs>
<clipPath id="clip0_249_719">
<rect width="40" height="40" fill="white"/>
</clipPath>
</defs>
</svg>
