<svg width="40" height="40" viewBox="0 0 40 40" fill="none" xmlns="http://www.w3.org/2000/svg">
<path opacity="0.1" d="M7.16531 21.8972C6.59984 21.3316 6.25 20.5504 6.25 19.6875C6.25 18.8245 6.59984 18.0432 7.16531 17.4778L13.4153 11.2278C13.9809 10.6623 14.7621 10.3125 15.625 10.3125H10.9375C10.0746 10.3125 9.29336 10.6623 8.72781 11.2278L2.47781 17.4778C1.91234 18.0432 1.5625 18.8245 1.5625 19.6875C1.5625 20.5504 1.91234 21.3316 2.47781 21.8972L17.7903 37.5222C18.3559 38.0877 19.1371 38.4375 20 38.4375C20.8629 38.4375 21.6441 38.0877 22.2097 37.5222L22.3438 37.3881L7.16531 21.8972Z" fill="white"/>
<path d="M20 4.6875V1.5625M26.25 4.6875L27.8125 1.5625M13.75 4.6875L12.1875 1.5625" stroke="white" stroke-width="3" stroke-miterlimit="10" stroke-linecap="round" stroke-linejoin="round"/>
<path d="M7.8125 19.6875H32.1875M15.1041 16.5625L14.0625 19.6875L16.54 27.1201M23.46 27.1201L25.9375 19.6875L24.8959 16.5625" stroke="#00AFE4" stroke-width="3" stroke-miterlimit="10" stroke-linecap="round" stroke-linejoin="round"/>
<path d="M22.2097 37.5222L37.5222 21.8972C38.0877 21.3317 38.4375 20.5505 38.4375 19.6875C38.4375 18.8245 38.0877 18.0433 37.5222 17.4778L31.2722 11.2278C30.7067 10.6623 29.9255 10.3125 29.0625 10.3125H10.9375C10.0745 10.3125 9.29328 10.6623 8.72781 11.2278L2.47781 17.4778C1.91227 18.0433 1.5625 18.8245 1.5625 19.6875C1.5625 20.5505 1.91227 21.3317 2.47781 21.8972L17.7903 37.5222C18.3558 38.0877 19.137 38.4375 20 38.4375C20.863 38.4375 21.6442 38.0877 22.2097 37.5222Z" stroke="white" stroke-width="3" stroke-miterlimit="10" stroke-linecap="round" stroke-linejoin="round"/>
</svg>
