<svg width="40" height="40" viewBox="0 0 40 40" fill="none" xmlns="http://www.w3.org/2000/svg">
<path d="M7.8125 7.8125C9.53839 7.8125 10.9375 6.41339 10.9375 4.6875C10.9375 2.96161 9.53839 1.5625 7.8125 1.5625C6.08661 1.5625 4.6875 2.96161 4.6875 4.6875C4.6875 6.41339 6.08661 7.8125 7.8125 7.8125Z" stroke="white" stroke-width="3" stroke-miterlimit="10" stroke-linecap="round" stroke-linejoin="round"/>
<path opacity="0.1" d="M10.1562 11.5653C9.44406 11.153 8.63545 10.9364 7.8125 10.9375C6.05469 10.9375 4.52281 11.9051 3.72055 13.3367L1.5625 17.1875H6.25L8.40805 13.3367C8.82138 12.6002 9.42521 11.9883 10.1562 11.5653Z" fill="white"/>
<path d="M3.72055 13.3367C4.52281 11.9051 6.05469 10.9375 7.8125 10.9375C9.57031 10.9375 11.1022 11.9051 11.9045 13.3367L14.0625 17.1875H1.5625L3.72055 13.3367Z" stroke="white" stroke-width="3" stroke-miterlimit="10" stroke-linecap="round" stroke-linejoin="round"/>
<path d="M32.1875 29.0625C33.9134 29.0625 35.3125 27.6634 35.3125 25.9375C35.3125 24.2116 33.9134 22.8125 32.1875 22.8125C30.4616 22.8125 29.0625 24.2116 29.0625 25.9375C29.0625 27.6634 30.4616 29.0625 32.1875 29.0625Z" stroke="#00AFE4" stroke-width="3" stroke-miterlimit="10" stroke-linecap="round" stroke-linejoin="round"/>
<path d="M28.0955 34.5867C28.8978 33.1551 30.4297 32.1875 32.1875 32.1875C33.9453 32.1875 35.4772 33.1551 36.2795 34.5867L38.4375 38.4375H25.9375L28.0955 34.5867Z" stroke="#00AFE4" stroke-width="3" stroke-miterlimit="10" stroke-linecap="round" stroke-linejoin="round"/>
<path d="M35.3125 9.375V7.8125C35.3125 4.3607 32.5143 1.5625 29.0625 1.5625H19.6875H22.8125C26.2643 1.5625 29.0625 4.3607 29.0625 7.8125V9.375H25.9375L32.1875 17.1875L38.4375 9.375H35.3125ZM4.6875 30.625V32.1875C4.6875 35.6393 7.4857 38.4375 10.9375 38.4375H20.3125H17.1875C13.7357 38.4375 10.9375 35.6393 10.9375 32.1875V30.625H14.0625L7.8125 22.8125L1.5625 30.625H4.6875Z" stroke="white" stroke-width="3" stroke-miterlimit="10" stroke-linecap="round" stroke-linejoin="round"/>
</svg>
