<svg width="42" height="36" viewBox="0 0 42 36" fill="none" xmlns="http://www.w3.org/2000/svg">
<path opacity="0.1" d="M30.8544 11.661H26.0239L23.9629 30.3068C24.2849 28.8576 25.5731 27.7627 27.1188 27.7627C27.8226 27.7627 28.4751 27.9921 29.0065 28.379L30.8544 11.661Z" fill="white"/>
<path d="M30.3778 30.9874L30.3387 30.983H35.1692C36.811 30.983 38.166 29.7543 38.3646 28.1662L39.9747 15.2849C39.9912 15.1527 39.9997 15.018 39.9997 14.8813C39.9997 13.1028 38.5579 11.661 36.7794 11.661H26.0449" stroke="white" stroke-width="3" stroke-miterlimit="10" stroke-linecap="round" stroke-linejoin="round"/>
<path d="M11.6608 34.2034C13.4393 34.2034 14.8811 32.7616 14.8811 30.983C14.8811 29.2045 13.4393 27.7627 11.6608 27.7627C9.88222 27.7627 8.44043 29.2045 8.44043 30.983C8.44043 32.7616 9.88222 34.2034 11.6608 34.2034Z" stroke="white" stroke-width="3" stroke-miterlimit="10" stroke-linecap="round" stroke-linejoin="round"/>
<path d="M27.1188 34.2034C28.8973 34.2034 30.3391 32.7616 30.3391 30.983C30.3391 29.2045 28.8973 27.7627 27.1188 27.7627C25.3402 27.7627 23.8984 29.2045 23.8984 30.983C23.8984 32.7616 25.3402 34.2034 27.1188 34.2034Z" stroke="white" stroke-width="3" stroke-miterlimit="10" stroke-linecap="round" stroke-linejoin="round"/>
<path d="M2 14.8813H8.44067M2 8.44067H11.661M2 21.322H5.22034" stroke="#00AFE4" stroke-width="3" stroke-miterlimit="10" stroke-linecap="round" stroke-linejoin="round"/>
<path d="M14.8813 30.983H23.8983L26.3239 9.15197C26.7479 5.33667 23.7614 2 19.9227 2H5.22034M8.44067 30.983H5.22034C3.44183 30.983 2 29.5412 2 27.7627M32.5258 11.661L31.8496 17.746C31.6376 19.6536 33.1308 21.322 35.0502 21.322H39.2203" stroke="white" stroke-width="3" stroke-miterlimit="10" stroke-linecap="round" stroke-linejoin="round"/>
</svg>
