<svg width="40" height="40" viewBox="0 0 40 40" fill="none" xmlns="http://www.w3.org/2000/svg">
<path opacity="0.1" d="M12.1875 27.4V27.2165C12.1875 25.5639 12.844 23.987 14.0126 22.8184C17.6133 19.2177 21.477 16.5004 21.5628 10.2686C21.5734 9.49367 21.867 8.78742 22.3438 8.2468C21.7712 7.59758 20.9337 7.1875 20 7.1875C18.2889 7.1875 16.8988 8.56305 16.8753 10.2686C16.7896 16.5005 12.9259 19.2177 9.32508 22.8184C8.15656 23.987 7.50008 25.5639 7.5 27.2165V27.4C7.5 33.4916 12.4382 38.4375 18.5299 38.4375L23.1713 38.437C17.1009 38.412 12.1875 33.4762 12.1875 27.4Z" fill="white"/>
<path d="M32.5 28.4376V22.8125C32.5 21.0866 31.1009 19.6875 29.375 19.6875H20.5351C22.2233 16.8854 23.125 13.6679 23.125 10.3125C23.125 8.58672 21.7258 7.1875 20 7.1875C18.2889 7.1875 16.8988 8.56305 16.8753 10.2686C16.7896 16.5005 12.9259 19.2177 9.32508 22.8184C8.15648 23.9869 7.5 25.5639 7.5 27.2165V27.4C7.5 33.4916 12.4382 38.4375 18.5299 38.4375H23.125C28.3027 38.4375 32.5 34.2402 32.5 29.0625V28.4376Z" stroke="white" stroke-width="3" stroke-miterlimit="10" stroke-linecap="round" stroke-linejoin="round"/>
<path d="M10.625 10.9375H7.5M32.5 10.9375H29.375M26.25 4.6875L29.375 1.5625M10.625 1.5625L13.75 4.6875" stroke="#00AFE4" stroke-width="3" stroke-miterlimit="10" stroke-linecap="round" stroke-linejoin="round"/>
</svg>
