<svg width="103" height="22" viewBox="0 0 103 22" fill="none" xmlns="http://www.w3.org/2000/svg">
<line x1="2.12132" y1="3" x2="17.6777" y2="18.5563" stroke="white" stroke-width="3" stroke-linecap="round"/>
<line x1="2" y1="18.5564" x2="17.5563" y2="3.00007" stroke="white" stroke-width="3" stroke-linecap="round"/>
<path d="M35.4936 17.169C34.6645 17.169 33.924 17.0262 33.272 16.7404C32.6241 16.4547 32.1109 16.0582 31.7326 15.5511C31.3583 15.04 31.1571 14.4484 31.1289 13.7763H33.0245C33.0487 14.1425 33.1714 14.4605 33.3928 14.7301C33.6181 14.9957 33.9119 15.201 34.2741 15.3459C34.6364 15.4908 35.0388 15.5632 35.4815 15.5632C35.9685 15.5632 36.3991 15.4787 36.7734 15.3097C37.1518 15.1406 37.4476 14.9052 37.6609 14.6033C37.8742 14.2975 37.9808 13.9453 37.9808 13.5469C37.9808 13.1323 37.8742 12.7681 37.6609 12.4542C37.4516 12.1362 37.1437 11.8867 36.7372 11.7056C36.3348 11.5245 35.8478 11.4339 35.2763 11.4339H34.2319V9.91264H35.2763C35.7351 9.91264 36.1375 9.83014 36.4837 9.66513C36.8338 9.50012 37.1075 9.27071 37.3047 8.97692C37.5019 8.6791 37.6005 8.33097 37.6005 7.93253C37.6005 7.55019 37.514 7.21816 37.3409 6.93643C37.1719 6.65069 36.9304 6.42732 36.6165 6.26633C36.3066 6.10535 35.9403 6.02486 35.5178 6.02486C35.1153 6.02486 34.739 6.09931 34.3888 6.24822C34.0427 6.39311 33.761 6.60239 33.5437 6.87607C33.3263 7.14571 33.2096 7.4697 33.1935 7.84801H31.3885C31.4086 7.17992 31.6058 6.59233 31.9801 6.08523C32.3584 5.57812 32.8575 5.1817 33.4773 4.89595C34.0971 4.6102 34.7853 4.46733 35.5419 4.46733C36.3348 4.46733 37.0189 4.62228 37.5945 4.93217C38.174 5.23804 38.6207 5.64654 38.9347 6.15767C39.2526 6.6688 39.4096 7.22822 39.4055 7.83594C39.4096 8.52817 39.2164 9.11577 38.826 9.59872C38.4396 10.0817 37.9245 10.4057 37.2805 10.5707V10.6673C38.1016 10.792 38.7375 11.118 39.1882 11.6452C39.643 12.1725 39.8684 12.8265 39.8643 13.6072C39.8684 14.2874 39.6792 14.8971 39.2969 15.4364C38.9186 15.9757 38.4014 16.4003 37.7454 16.7102C37.0894 17.0161 36.3388 17.169 35.4936 17.169ZM44.869 17.2053C44.2814 17.2053 43.7501 17.0966 43.2752 16.8793C42.8003 16.6579 42.424 16.3379 42.1463 15.9194C41.8726 15.5008 41.7358 14.9877 41.7358 14.38C41.7358 13.8568 41.8364 13.4261 42.0376 13.0881C42.2389 12.75 42.5105 12.4824 42.8526 12.2852C43.1947 12.0879 43.5771 11.939 43.9996 11.8384C44.4222 11.7378 44.8529 11.6613 45.2915 11.609C45.8469 11.5446 46.2977 11.4923 46.6438 11.4521C46.9899 11.4078 47.2415 11.3374 47.3984 11.2408C47.5554 11.1442 47.6339 10.9872 47.6339 10.7699V10.7276C47.6339 10.2004 47.485 9.7919 47.1871 9.50213C46.8933 9.21236 46.4547 9.06747 45.8711 9.06747C45.2634 9.06747 44.7844 9.2023 44.4343 9.47195C44.0882 9.73757 43.8487 10.0334 43.7159 10.3594L42.0195 9.97301C42.2208 9.40956 42.5146 8.95478 42.9009 8.60866C43.2913 8.25852 43.7401 8.00497 44.2472 7.84801C44.7543 7.68703 45.2875 7.60653 45.8469 7.60653C46.2172 7.60653 46.6096 7.65081 47.0241 7.73935C47.4427 7.82386 47.8331 7.98082 48.1953 8.21023C48.5616 8.43963 48.8614 8.76764 49.0948 9.19425C49.3282 9.61683 49.445 10.1662 49.445 10.8423V17H47.6822V15.7322H47.6097C47.493 15.9657 47.3179 16.1951 47.0845 16.4205C46.8511 16.6458 46.5513 16.833 46.185 16.9819C45.8188 17.1308 45.3801 17.2053 44.869 17.2053ZM45.2614 15.7564C45.7604 15.7564 46.187 15.6578 46.5412 15.4606C46.8994 15.2634 47.171 15.0058 47.3562 14.6879C47.5453 14.3659 47.6399 14.0218 47.6399 13.6555V12.4602C47.5755 12.5246 47.4508 12.585 47.2656 12.6413C47.0845 12.6937 46.8772 12.7399 46.6438 12.7802C46.4104 12.8164 46.183 12.8506 45.9616 12.8828C45.7403 12.911 45.5552 12.9351 45.4062 12.9553C45.0561 12.9995 44.7362 13.074 44.4464 13.1786C44.1606 13.2833 43.9312 13.4342 43.7582 13.6314C43.5891 13.8246 43.5046 14.0821 43.5046 14.4041C43.5046 14.8509 43.6696 15.1889 43.9996 15.4183C44.3297 15.6437 44.7502 15.7564 45.2614 15.7564ZM51.8492 17V7.72727H53.6542V11.6151H54.5235L57.5843 7.72727H59.8179L56.2259 12.2369L59.8602 17H57.6205L54.8254 13.2933H53.6542V17H51.8492ZM61.2623 20.4773V7.72727H63.025V9.23047H63.176C63.2806 9.03729 63.4315 8.81392 63.6287 8.56037C63.8259 8.30682 64.0996 8.08546 64.4498 7.89631C64.7999 7.70312 65.2627 7.60653 65.8382 7.60653C66.5868 7.60653 67.2549 7.79569 67.8425 8.17401C68.4301 8.55232 68.8909 9.09766 69.225 9.81001C69.563 10.5224 69.7321 11.3796 69.7321 12.3817C69.7321 13.3839 69.565 14.2431 69.231 14.9595C68.897 15.6719 68.4382 16.2212 67.8546 16.6076C67.271 16.9899 66.6049 17.1811 65.8564 17.1811C65.2929 17.1811 64.8321 17.0865 64.4739 16.8974C64.1197 16.7082 63.842 16.4869 63.6408 16.2333C63.4396 15.9798 63.2846 15.7544 63.176 15.5572H63.0673V20.4773H61.2623ZM63.0311 12.3636C63.0311 13.0156 63.1257 13.5871 63.3148 14.0781C63.504 14.5691 63.7776 14.9535 64.1358 15.2312C64.494 15.5049 64.9327 15.6417 65.4519 15.6417C65.9912 15.6417 66.4419 15.4988 66.8042 15.2131C67.1664 14.9233 67.44 14.5309 67.6252 14.0359C67.8143 13.5408 67.9089 12.9834 67.9089 12.3636C67.9089 11.7519 67.8163 11.2025 67.6312 10.7156C67.4501 10.2286 67.1764 9.84422 66.8102 9.5625C66.448 9.28078 65.9952 9.13991 65.4519 9.13991C64.9287 9.13991 64.486 9.27474 64.1238 9.54439C63.7656 9.81404 63.4939 10.1903 63.3088 10.6733C63.1236 11.1562 63.0311 11.7197 63.0311 12.3636ZM73.1127 10.9148H75.8052C76.9402 10.9148 77.8135 11.1965 78.4252 11.7599C79.037 12.3234 79.3429 13.0498 79.3429 13.9393C79.3429 14.5188 79.206 15.04 78.9324 15.5028C78.6587 15.9657 78.2582 16.3319 77.731 16.6016C77.2038 16.8672 76.5618 17 75.8052 17H71.7544V7.72727H73.5233V15.4425H75.8052C76.3244 15.4425 76.751 15.3076 77.085 15.038C77.4191 14.7643 77.5861 14.4162 77.5861 13.9936C77.5861 13.5469 77.4191 13.1826 77.085 12.9009C76.751 12.6152 76.3244 12.4723 75.8052 12.4723H73.1127V10.9148ZM80.6589 17V7.72727H82.464V17H80.6589ZM84.3671 9.2848V7.72727H92.191V9.2848H89.1665V17H87.4037V9.2848H84.3671ZM95.4585 10.9148H98.1509C99.2859 10.9148 100.159 11.1965 100.771 11.7599C101.383 12.3234 101.689 13.0498 101.689 13.9393C101.689 14.5188 101.552 15.04 101.278 15.5028C101.004 15.9657 100.604 16.3319 100.077 16.6016C99.5495 16.8672 98.9076 17 98.1509 17H94.1001V7.72727H95.869V15.4425H98.1509C98.6701 15.4425 99.0967 15.3076 99.4308 15.038C99.7648 14.7643 99.9318 14.4162 99.9318 13.9936C99.9318 13.5469 99.7648 13.1826 99.4308 12.9009C99.0967 12.6152 98.6701 12.4723 98.1509 12.4723H95.4585V10.9148Z" fill="white"/>
</svg>
