<svg width="1920" height="120" viewBox="0 0 1920 120" fill="none" xmlns="http://www.w3.org/2000/svg">
<g opacity="0.3" clip-path="url(#clip0_225_2031)">
<line y1="-0.5" x2="442.354" y2="-0.5" transform="matrix(-0.675929 0.736966 0.675929 0.736966 1046 -195)" stroke="#271850"/>
<line y1="-0.5" x2="442.354" y2="-0.5" transform="matrix(-0.675929 0.736966 0.675929 0.736966 1056 -195)" stroke="#271850"/>
<line y1="-0.5" x2="442.354" y2="-0.5" transform="matrix(-0.675929 0.736966 0.675929 0.736966 1066 -195)" stroke="#271850"/>
<line y1="-0.5" x2="442.354" y2="-0.5" transform="matrix(-0.675929 0.736966 0.675929 0.736966 1076 -195)" stroke="#271850"/>
<line y1="-0.5" x2="442.354" y2="-0.5" transform="matrix(-0.675929 0.736966 0.675929 0.736966 1086 -195)" stroke="#271850"/>
<line y1="-0.5" x2="442.354" y2="-0.5" transform="matrix(-0.675929 0.736966 0.675929 0.736966 1096 -195)" stroke="#271850"/>
<line y1="-0.5" x2="442.354" y2="-0.5" transform="matrix(-0.675929 0.736966 0.675929 0.736966 1106 -195)" stroke="#271850"/>
<line y1="-0.5" x2="442.354" y2="-0.5" transform="matrix(-0.675929 0.736966 0.675929 0.736966 1116 -195)" stroke="#271850"/>
<line y1="-0.5" x2="442.354" y2="-0.5" transform="matrix(-0.675929 0.736966 0.675929 0.736966 1126 -195)" stroke="#271850"/>
<line y1="-0.5" x2="442.354" y2="-0.5" transform="matrix(-0.675929 0.736966 0.675929 0.736966 1136 -195)" stroke="#271850"/>
<line y1="-0.5" x2="442.354" y2="-0.5" transform="matrix(-0.675929 0.736966 0.675929 0.736966 1146 -195)" stroke="#271850"/>
<line y1="-0.5" x2="442.354" y2="-0.5" transform="matrix(-0.675929 0.736966 0.675929 0.736966 1156 -195)" stroke="#271850"/>
<line y1="-0.5" x2="442.354" y2="-0.5" transform="matrix(-0.675929 0.736966 0.675929 0.736966 1166 -195)" stroke="#271850"/>
<line y1="-0.5" x2="442.354" y2="-0.5" transform="matrix(-0.675929 0.736966 0.675929 0.736966 1176 -195)" stroke="#271850"/>
<line y1="-0.5" x2="442.354" y2="-0.5" transform="matrix(-0.675929 0.736966 0.675929 0.736966 1186 -195)" stroke="#271850"/>
<line y1="-0.5" x2="442.354" y2="-0.5" transform="matrix(-0.675929 0.736966 0.675929 0.736966 1196 -195)" stroke="#271850"/>
<line y1="-0.5" x2="442.354" y2="-0.5" transform="matrix(-0.675929 0.736966 0.675929 0.736966 1206 -195)" stroke="#271850"/>
<line y1="-0.5" x2="442.354" y2="-0.5" transform="matrix(-0.675929 0.736966 0.675929 0.736966 1216 -195)" stroke="#271850"/>
<line y1="-0.5" x2="442.354" y2="-0.5" transform="matrix(-0.675929 0.736966 0.675929 0.736966 1226 -195)" stroke="#271850"/>
<line y1="-0.5" x2="442.354" y2="-0.5" transform="matrix(-0.675929 0.736966 0.675929 0.736966 1236 -195)" stroke="#271850"/>
<line y1="-0.5" x2="442.354" y2="-0.5" transform="matrix(-0.675929 0.736966 0.675929 0.736966 1246 -195)" stroke="#271850"/>
<line y1="-0.5" x2="442.354" y2="-0.5" transform="matrix(-0.675929 0.736966 0.675929 0.736966 1256 -195)" stroke="#271850"/>
<line y1="-0.5" x2="442.354" y2="-0.5" transform="matrix(-0.675929 0.736966 0.675929 0.736966 1266 -195)" stroke="#271850"/>
<line y1="-0.5" x2="442.354" y2="-0.5" transform="matrix(-0.675929 0.736966 0.675929 0.736966 1276 -195)" stroke="#271850"/>
<line y1="-0.5" x2="442.354" y2="-0.5" transform="matrix(-0.675929 0.736966 0.675929 0.736966 1286 -195)" stroke="#271850"/>
<line y1="-0.5" x2="442.354" y2="-0.5" transform="matrix(-0.675929 0.736966 0.675929 0.736966 1296 -195)" stroke="#271850"/>
<line y1="-0.5" x2="442.354" y2="-0.5" transform="matrix(-0.675929 0.736966 0.675929 0.736966 1306 -195)" stroke="#271850"/>
<line y1="-0.5" x2="442.354" y2="-0.5" transform="matrix(-0.675929 0.736966 0.675929 0.736966 1316 -195)" stroke="#271850"/>
<line y1="-0.5" x2="442.354" y2="-0.5" transform="matrix(-0.675929 0.736966 0.675929 0.736966 1326 -195)" stroke="#271850"/>
<line y1="-0.5" x2="442.354" y2="-0.5" transform="matrix(-0.675929 0.736966 0.675929 0.736966 1336 -195)" stroke="#271850"/>
<line y1="-0.5" x2="442.354" y2="-0.5" transform="matrix(-0.675929 0.736966 0.675929 0.736966 1346 -195)" stroke="#271850"/>
<line y1="-0.5" x2="442.354" y2="-0.5" transform="matrix(-0.675929 0.736966 0.675929 0.736966 1356 -195)" stroke="#271850"/>
<line y1="-0.5" x2="442.354" y2="-0.5" transform="matrix(-0.675929 0.736966 0.675929 0.736966 1366 -195)" stroke="#271850"/>
<line y1="-0.5" x2="442.354" y2="-0.5" transform="matrix(-0.675929 0.736966 0.675929 0.736966 1376 -195)" stroke="#271850"/>
<line y1="-0.5" x2="442.354" y2="-0.5" transform="matrix(-0.675929 0.736966 0.675929 0.736966 1386 -195)" stroke="#271850"/>
<line y1="-0.5" x2="442.354" y2="-0.5" transform="matrix(-0.675929 0.736966 0.675929 0.736966 1396 -195)" stroke="#271850"/>
<line y1="-0.5" x2="442.354" y2="-0.5" transform="matrix(-0.675929 0.736966 0.675929 0.736966 1406 -195)" stroke="#271850"/>
<line y1="-0.5" x2="442.354" y2="-0.5" transform="matrix(-0.675929 0.736966 0.675929 0.736966 1416 -195)" stroke="#271850"/>
<line y1="-0.5" x2="442.354" y2="-0.5" transform="matrix(-0.675929 0.736966 0.675929 0.736966 1426 -195)" stroke="#271850"/>
<line y1="-0.5" x2="442.354" y2="-0.5" transform="matrix(-0.675929 0.736966 0.675929 0.736966 1436 -195)" stroke="#271850"/>
<line y1="-0.5" x2="442.354" y2="-0.5" transform="matrix(-0.675929 0.736966 0.675929 0.736966 1446 -195)" stroke="#271850"/>
<line y1="-0.5" x2="442.354" y2="-0.5" transform="matrix(-0.675929 0.736966 0.675929 0.736966 1456 -195)" stroke="#271850"/>
<line y1="-0.5" x2="442.354" y2="-0.5" transform="matrix(-0.675929 0.736966 0.675929 0.736966 1466 -195)" stroke="#271850"/>
<line y1="-0.5" x2="442.354" y2="-0.5" transform="matrix(-0.675929 0.736966 0.675929 0.736966 1476 -195)" stroke="#271850"/>
<line y1="-0.5" x2="442.354" y2="-0.5" transform="matrix(-0.675929 0.736966 0.675929 0.736966 1486 -195)" stroke="#271850"/>
<line y1="-0.5" x2="442.354" y2="-0.5" transform="matrix(-0.675929 0.736966 0.675929 0.736966 1496 -195)" stroke="#271850"/>
<line y1="-0.5" x2="442.354" y2="-0.5" transform="matrix(-0.675929 0.736966 0.675929 0.736966 1506 -195)" stroke="#271850"/>
<line y1="-0.5" x2="442.354" y2="-0.5" transform="matrix(-0.675929 0.736966 0.675929 0.736966 1516 -195)" stroke="#271850"/>
<line y1="-0.5" x2="442.354" y2="-0.5" transform="matrix(-0.675929 0.736966 0.675929 0.736966 1526 -195)" stroke="#271850"/>
<line y1="-0.5" x2="442.354" y2="-0.5" transform="matrix(-0.675929 0.736966 0.675929 0.736966 1536 -195)" stroke="#271850"/>
<line y1="-0.5" x2="442.354" y2="-0.5" transform="matrix(-0.675929 0.736966 0.675929 0.736966 1546 -195)" stroke="#271850"/>
<line y1="-0.5" x2="442.354" y2="-0.5" transform="matrix(-0.675929 0.736966 0.675929 0.736966 1556 -195)" stroke="#271850"/>
<line y1="-0.5" x2="442.354" y2="-0.5" transform="matrix(-0.675929 0.736966 0.675929 0.736966 1566 -195)" stroke="#271850"/>
<line y1="-0.5" x2="442.354" y2="-0.5" transform="matrix(-0.675929 0.736966 0.675929 0.736966 1576 -195)" stroke="#271850"/>
<line y1="-0.5" x2="442.354" y2="-0.5" transform="matrix(-0.675929 0.736966 0.675929 0.736966 1586 -195)" stroke="#271850"/>
<line y1="-0.5" x2="442.354" y2="-0.5" transform="matrix(-0.675929 0.736966 0.675929 0.736966 1596 -195)" stroke="#271850"/>
<line y1="-0.5" x2="442.354" y2="-0.5" transform="matrix(-0.675929 0.736966 0.675929 0.736966 1606 -195)" stroke="#271850"/>
<line y1="-0.5" x2="442.354" y2="-0.5" transform="matrix(-0.675929 0.736966 0.675929 0.736966 1616 -195)" stroke="#271850"/>
<line y1="-0.5" x2="442.354" y2="-0.5" transform="matrix(-0.675929 0.736966 0.675929 0.736966 1626 -195)" stroke="#271850"/>
<line y1="-0.5" x2="442.354" y2="-0.5" transform="matrix(-0.675929 0.736966 0.675929 0.736966 1636 -195)" stroke="#271850"/>
<line y1="-0.5" x2="442.354" y2="-0.5" transform="matrix(-0.675929 0.736966 0.675929 0.736966 1646 -195)" stroke="#271850"/>
<line y1="-0.5" x2="442.354" y2="-0.5" transform="matrix(-0.675929 0.736966 0.675929 0.736966 1656 -195)" stroke="#271850"/>
<line y1="-0.5" x2="442.354" y2="-0.5" transform="matrix(-0.675929 0.736966 0.675929 0.736966 1666 -195)" stroke="#271850"/>
<line y1="-0.5" x2="442.354" y2="-0.5" transform="matrix(-0.675929 0.736966 0.675929 0.736966 1676 -195)" stroke="#271850"/>
<line y1="-0.5" x2="442.354" y2="-0.5" transform="matrix(-0.675929 0.736966 0.675929 0.736966 1686 -195)" stroke="#271850"/>
<line y1="-0.5" x2="442.354" y2="-0.5" transform="matrix(-0.675929 0.736966 0.675929 0.736966 1696 -195)" stroke="#271850"/>
<line y1="-0.5" x2="442.354" y2="-0.5" transform="matrix(-0.675929 0.736966 0.675929 0.736966 1706 -195)" stroke="#271850"/>
<line y1="-0.5" x2="442.354" y2="-0.5" transform="matrix(-0.675929 0.736966 0.675929 0.736966 1716 -195)" stroke="#271850"/>
<line y1="-0.5" x2="442.354" y2="-0.5" transform="matrix(-0.675929 0.736966 0.675929 0.736966 1726 -195)" stroke="#271850"/>
<line y1="-0.5" x2="442.354" y2="-0.5" transform="matrix(-0.675929 0.736966 0.675929 0.736966 1736 -195)" stroke="#271850"/>
<line y1="-0.5" x2="442.354" y2="-0.5" transform="matrix(-0.675929 0.736966 0.675929 0.736966 1746 -195)" stroke="#271850"/>
<line y1="-0.5" x2="442.354" y2="-0.5" transform="matrix(-0.675929 0.736966 0.675929 0.736966 1756 -195)" stroke="#271850"/>
<line y1="-0.5" x2="442.354" y2="-0.5" transform="matrix(-0.675929 0.736966 0.675929 0.736966 1766 -195)" stroke="#271850"/>
<line y1="-0.5" x2="442.354" y2="-0.5" transform="matrix(-0.675929 0.736966 0.675929 0.736966 1776 -195)" stroke="#271850"/>
<line y1="-0.5" x2="442.354" y2="-0.5" transform="matrix(-0.675929 0.736966 0.675929 0.736966 1786 -195)" stroke="#271850"/>
<line y1="-0.5" x2="442.354" y2="-0.5" transform="matrix(-0.675929 0.736966 0.675929 0.736966 1796 -195)" stroke="#271850"/>
<line y1="-0.5" x2="442.354" y2="-0.5" transform="matrix(-0.675929 0.736966 0.675929 0.736966 1806 -195)" stroke="#271850"/>
<line y1="-0.5" x2="442.354" y2="-0.5" transform="matrix(-0.675929 0.736966 0.675929 0.736966 1816 -195)" stroke="#271850"/>
<line y1="-0.5" x2="442.354" y2="-0.5" transform="matrix(-0.675929 0.736966 0.675929 0.736966 1826 -195)" stroke="#271850"/>
<line y1="-0.5" x2="442.354" y2="-0.5" transform="matrix(-0.675929 0.736966 0.675929 0.736966 1836 -195)" stroke="#271850"/>
<line y1="-0.5" x2="442.354" y2="-0.5" transform="matrix(-0.675929 0.736966 0.675929 0.736966 1846 -195)" stroke="#271850"/>
<line y1="-0.5" x2="442.354" y2="-0.5" transform="matrix(-0.675929 0.736966 0.675929 0.736966 1856 -195)" stroke="#271850"/>
<line y1="-0.5" x2="442.354" y2="-0.5" transform="matrix(-0.675929 0.736966 0.675929 0.736966 1866 -195)" stroke="#271850"/>
<line y1="-0.5" x2="442.354" y2="-0.5" transform="matrix(-0.675929 0.736966 0.675929 0.736966 1876 -195)" stroke="#271850"/>
<line y1="-0.5" x2="442.354" y2="-0.5" transform="matrix(-0.675929 0.736966 0.675929 0.736966 1886 -195)" stroke="#271850"/>
<line y1="-0.5" x2="442.354" y2="-0.5" transform="matrix(-0.675929 0.736966 0.675929 0.736966 1896 -195)" stroke="#271850"/>
<line y1="-0.5" x2="442.354" y2="-0.5" transform="matrix(-0.675929 0.736966 0.675929 0.736966 1906 -195)" stroke="#271850"/>
<line y1="-0.5" x2="442.354" y2="-0.5" transform="matrix(-0.675929 0.736966 0.675929 0.736966 1916 -195)" stroke="#271850"/>
<line y1="-0.5" x2="442.354" y2="-0.5" transform="matrix(-0.675929 0.736966 0.675929 0.736966 1926 -195)" stroke="#271850"/>
<line y1="-0.5" x2="442.354" y2="-0.5" transform="matrix(-0.675929 0.736966 0.675929 0.736966 1936 -195)" stroke="#271850"/>
<line y1="-0.5" x2="442.354" y2="-0.5" transform="matrix(-0.675929 0.736966 0.675929 0.736966 1946 -195)" stroke="#271850"/>
<line y1="-0.5" x2="442.354" y2="-0.5" transform="matrix(-0.675929 0.736966 0.675929 0.736966 1956 -195)" stroke="#271850"/>
<line y1="-0.5" x2="442.354" y2="-0.5" transform="matrix(-0.675929 0.736966 0.675929 0.736966 1966 -195)" stroke="#271850"/>
<line y1="-0.5" x2="442.354" y2="-0.5" transform="matrix(-0.675929 0.736966 0.675929 0.736966 1976 -195)" stroke="#271850"/>
<line y1="-0.5" x2="442.354" y2="-0.5" transform="matrix(-0.675929 0.736966 0.675929 0.736966 1986 -195)" stroke="#271850"/>
<line y1="-0.5" x2="442.354" y2="-0.5" transform="matrix(-0.675929 0.736966 0.675929 0.736966 1996 -195)" stroke="#271850"/>
<line y1="-0.5" x2="442.354" y2="-0.5" transform="matrix(-0.675929 0.736966 0.675929 0.736966 2006 -195)" stroke="#271850"/>
<line y1="-0.5" x2="442.354" y2="-0.5" transform="matrix(-0.675929 0.736966 0.675929 0.736966 2016 -195)" stroke="#271850"/>
<line y1="-0.5" x2="442.354" y2="-0.5" transform="matrix(-0.675929 0.736966 0.675929 0.736966 2026 -195)" stroke="#271850"/>
<line y1="-0.5" x2="442.354" y2="-0.5" transform="matrix(-0.675929 0.736966 0.675929 0.736966 2036 -195)" stroke="#271850"/>
<line y1="-0.5" x2="442.354" y2="-0.5" transform="matrix(-0.675929 0.736966 0.675929 0.736966 2046 -195)" stroke="#271850"/>
<line y1="-0.5" x2="442.354" y2="-0.5" transform="matrix(-0.675929 0.736966 0.675929 0.736966 36 -195)" stroke="#271850"/>
<line y1="-0.5" x2="442.354" y2="-0.5" transform="matrix(-0.675929 0.736966 0.675929 0.736966 46 -195)" stroke="#271850"/>
<line y1="-0.5" x2="442.354" y2="-0.5" transform="matrix(-0.675929 0.736966 0.675929 0.736966 56 -195)" stroke="#271850"/>
<line y1="-0.5" x2="442.354" y2="-0.5" transform="matrix(-0.675929 0.736966 0.675929 0.736966 66 -195)" stroke="#271850"/>
<line y1="-0.5" x2="442.354" y2="-0.5" transform="matrix(-0.675929 0.736966 0.675929 0.736966 76 -195)" stroke="#271850"/>
<line y1="-0.5" x2="442.354" y2="-0.5" transform="matrix(-0.675929 0.736966 0.675929 0.736966 86 -195)" stroke="#271850"/>
<line y1="-0.5" x2="442.354" y2="-0.5" transform="matrix(-0.675929 0.736966 0.675929 0.736966 96 -195)" stroke="#271850"/>
<line y1="-0.5" x2="442.354" y2="-0.5" transform="matrix(-0.675929 0.736966 0.675929 0.736966 106 -195)" stroke="#271850"/>
<line y1="-0.5" x2="442.354" y2="-0.5" transform="matrix(-0.675929 0.736966 0.675929 0.736966 116 -195)" stroke="#271850"/>
<line y1="-0.5" x2="442.354" y2="-0.5" transform="matrix(-0.675929 0.736966 0.675929 0.736966 126 -195)" stroke="#271850"/>
<line y1="-0.5" x2="442.354" y2="-0.5" transform="matrix(-0.675929 0.736966 0.675929 0.736966 136 -195)" stroke="#271850"/>
<line y1="-0.5" x2="442.354" y2="-0.5" transform="matrix(-0.675929 0.736966 0.675929 0.736966 146 -195)" stroke="#271850"/>
<line y1="-0.5" x2="442.354" y2="-0.5" transform="matrix(-0.675929 0.736966 0.675929 0.736966 156 -195)" stroke="#271850"/>
<line y1="-0.5" x2="442.354" y2="-0.5" transform="matrix(-0.675929 0.736966 0.675929 0.736966 166 -195)" stroke="#271850"/>
<line y1="-0.5" x2="442.354" y2="-0.5" transform="matrix(-0.675929 0.736966 0.675929 0.736966 176 -195)" stroke="#271850"/>
<line y1="-0.5" x2="442.354" y2="-0.5" transform="matrix(-0.675929 0.736966 0.675929 0.736966 186 -195)" stroke="#271850"/>
<line y1="-0.5" x2="442.354" y2="-0.5" transform="matrix(-0.675929 0.736966 0.675929 0.736966 196 -195)" stroke="#271850"/>
<line y1="-0.5" x2="442.354" y2="-0.5" transform="matrix(-0.675929 0.736966 0.675929 0.736966 206 -195)" stroke="#271850"/>
<line y1="-0.5" x2="442.354" y2="-0.5" transform="matrix(-0.675929 0.736966 0.675929 0.736966 216 -195)" stroke="#271850"/>
<line y1="-0.5" x2="442.354" y2="-0.5" transform="matrix(-0.675929 0.736966 0.675929 0.736966 226 -195)" stroke="#271850"/>
<line y1="-0.5" x2="442.354" y2="-0.5" transform="matrix(-0.675929 0.736966 0.675929 0.736966 236 -195)" stroke="#271850"/>
<line y1="-0.5" x2="442.354" y2="-0.5" transform="matrix(-0.675929 0.736966 0.675929 0.736966 246 -195)" stroke="#271850"/>
<line y1="-0.5" x2="442.354" y2="-0.5" transform="matrix(-0.675929 0.736966 0.675929 0.736966 256 -195)" stroke="#271850"/>
<line y1="-0.5" x2="442.354" y2="-0.5" transform="matrix(-0.675929 0.736966 0.675929 0.736966 266 -195)" stroke="#271850"/>
<line y1="-0.5" x2="442.354" y2="-0.5" transform="matrix(-0.675929 0.736966 0.675929 0.736966 276 -195)" stroke="#271850"/>
<line y1="-0.5" x2="442.354" y2="-0.5" transform="matrix(-0.675929 0.736966 0.675929 0.736966 286 -195)" stroke="#271850"/>
<line y1="-0.5" x2="442.354" y2="-0.5" transform="matrix(-0.675929 0.736966 0.675929 0.736966 296 -195)" stroke="#271850"/>
<line y1="-0.5" x2="442.354" y2="-0.5" transform="matrix(-0.675929 0.736966 0.675929 0.736966 306 -195)" stroke="#271850"/>
<line y1="-0.5" x2="442.354" y2="-0.5" transform="matrix(-0.675929 0.736966 0.675929 0.736966 316 -195)" stroke="#271850"/>
<line y1="-0.5" x2="442.354" y2="-0.5" transform="matrix(-0.675929 0.736966 0.675929 0.736966 326 -195)" stroke="#271850"/>
<line y1="-0.5" x2="442.354" y2="-0.5" transform="matrix(-0.675929 0.736966 0.675929 0.736966 336 -195)" stroke="#271850"/>
<line y1="-0.5" x2="442.354" y2="-0.5" transform="matrix(-0.675929 0.736966 0.675929 0.736966 346 -195)" stroke="#271850"/>
<line y1="-0.5" x2="442.354" y2="-0.5" transform="matrix(-0.675929 0.736966 0.675929 0.736966 356 -195)" stroke="#271850"/>
<line y1="-0.5" x2="442.354" y2="-0.5" transform="matrix(-0.675929 0.736966 0.675929 0.736966 366 -195)" stroke="#271850"/>
<line y1="-0.5" x2="442.354" y2="-0.5" transform="matrix(-0.675929 0.736966 0.675929 0.736966 376 -195)" stroke="#271850"/>
<line y1="-0.5" x2="442.354" y2="-0.5" transform="matrix(-0.675929 0.736966 0.675929 0.736966 386 -195)" stroke="#271850"/>
<line y1="-0.5" x2="442.354" y2="-0.5" transform="matrix(-0.675929 0.736966 0.675929 0.736966 396 -195)" stroke="#271850"/>
<line y1="-0.5" x2="442.354" y2="-0.5" transform="matrix(-0.675929 0.736966 0.675929 0.736966 406 -195)" stroke="#271850"/>
<line y1="-0.5" x2="442.354" y2="-0.5" transform="matrix(-0.675929 0.736966 0.675929 0.736966 416 -195)" stroke="#271850"/>
<line y1="-0.5" x2="442.354" y2="-0.5" transform="matrix(-0.675929 0.736966 0.675929 0.736966 426 -195)" stroke="#271850"/>
<line y1="-0.5" x2="442.354" y2="-0.5" transform="matrix(-0.675929 0.736966 0.675929 0.736966 436 -195)" stroke="#271850"/>
<line y1="-0.5" x2="442.354" y2="-0.5" transform="matrix(-0.675929 0.736966 0.675929 0.736966 446 -195)" stroke="#271850"/>
<line y1="-0.5" x2="442.354" y2="-0.5" transform="matrix(-0.675929 0.736966 0.675929 0.736966 456 -195)" stroke="#271850"/>
<line y1="-0.5" x2="442.354" y2="-0.5" transform="matrix(-0.675929 0.736966 0.675929 0.736966 466 -195)" stroke="#271850"/>
<line y1="-0.5" x2="442.354" y2="-0.5" transform="matrix(-0.675929 0.736966 0.675929 0.736966 476 -195)" stroke="#271850"/>
<line y1="-0.5" x2="442.354" y2="-0.5" transform="matrix(-0.675929 0.736966 0.675929 0.736966 486 -195)" stroke="#271850"/>
<line y1="-0.5" x2="442.354" y2="-0.5" transform="matrix(-0.675929 0.736966 0.675929 0.736966 496 -195)" stroke="#271850"/>
<line y1="-0.5" x2="442.354" y2="-0.5" transform="matrix(-0.675929 0.736966 0.675929 0.736966 506 -195)" stroke="#271850"/>
<line y1="-0.5" x2="442.354" y2="-0.5" transform="matrix(-0.675929 0.736966 0.675929 0.736966 516 -195)" stroke="#271850"/>
<line y1="-0.5" x2="442.354" y2="-0.5" transform="matrix(-0.675929 0.736966 0.675929 0.736966 526 -195)" stroke="#271850"/>
<line y1="-0.5" x2="442.354" y2="-0.5" transform="matrix(-0.675929 0.736966 0.675929 0.736966 536 -195)" stroke="#271850"/>
<line y1="-0.5" x2="442.354" y2="-0.5" transform="matrix(-0.675929 0.736966 0.675929 0.736966 546 -195)" stroke="#271850"/>
<line y1="-0.5" x2="442.354" y2="-0.5" transform="matrix(-0.675929 0.736966 0.675929 0.736966 556 -195)" stroke="#271850"/>
<line y1="-0.5" x2="442.354" y2="-0.5" transform="matrix(-0.675929 0.736966 0.675929 0.736966 566 -195)" stroke="#271850"/>
<line y1="-0.5" x2="442.354" y2="-0.5" transform="matrix(-0.675929 0.736966 0.675929 0.736966 576 -195)" stroke="#271850"/>
<line y1="-0.5" x2="442.354" y2="-0.5" transform="matrix(-0.675929 0.736966 0.675929 0.736966 586 -195)" stroke="#271850"/>
<line y1="-0.5" x2="442.354" y2="-0.5" transform="matrix(-0.675929 0.736966 0.675929 0.736966 596 -195)" stroke="#271850"/>
<line y1="-0.5" x2="442.354" y2="-0.5" transform="matrix(-0.675929 0.736966 0.675929 0.736966 606 -195)" stroke="#271850"/>
<line y1="-0.5" x2="442.354" y2="-0.5" transform="matrix(-0.675929 0.736966 0.675929 0.736966 616 -195)" stroke="#271850"/>
<line y1="-0.5" x2="442.354" y2="-0.5" transform="matrix(-0.675929 0.736966 0.675929 0.736966 626 -195)" stroke="#271850"/>
<line y1="-0.5" x2="442.354" y2="-0.5" transform="matrix(-0.675929 0.736966 0.675929 0.736966 636 -195)" stroke="#271850"/>
<line y1="-0.5" x2="442.354" y2="-0.5" transform="matrix(-0.675929 0.736966 0.675929 0.736966 646 -195)" stroke="#271850"/>
<line y1="-0.5" x2="442.354" y2="-0.5" transform="matrix(-0.675929 0.736966 0.675929 0.736966 656 -195)" stroke="#271850"/>
<line y1="-0.5" x2="442.354" y2="-0.5" transform="matrix(-0.675929 0.736966 0.675929 0.736966 666 -195)" stroke="#271850"/>
<line y1="-0.5" x2="442.354" y2="-0.5" transform="matrix(-0.675929 0.736966 0.675929 0.736966 676 -195)" stroke="#271850"/>
<line y1="-0.5" x2="442.354" y2="-0.5" transform="matrix(-0.675929 0.736966 0.675929 0.736966 686 -195)" stroke="#271850"/>
<line y1="-0.5" x2="442.354" y2="-0.5" transform="matrix(-0.675929 0.736966 0.675929 0.736966 696 -195)" stroke="#271850"/>
<line y1="-0.5" x2="442.354" y2="-0.5" transform="matrix(-0.675929 0.736966 0.675929 0.736966 706 -195)" stroke="#271850"/>
<line y1="-0.5" x2="442.354" y2="-0.5" transform="matrix(-0.675929 0.736966 0.675929 0.736966 716 -195)" stroke="#271850"/>
<line y1="-0.5" x2="442.354" y2="-0.5" transform="matrix(-0.675929 0.736966 0.675929 0.736966 726 -195)" stroke="#271850"/>
<line y1="-0.5" x2="442.354" y2="-0.5" transform="matrix(-0.675929 0.736966 0.675929 0.736966 736 -195)" stroke="#271850"/>
<line y1="-0.5" x2="442.354" y2="-0.5" transform="matrix(-0.675929 0.736966 0.675929 0.736966 746 -195)" stroke="#271850"/>
<line y1="-0.5" x2="442.354" y2="-0.5" transform="matrix(-0.675929 0.736966 0.675929 0.736966 756 -195)" stroke="#271850"/>
<line y1="-0.5" x2="442.354" y2="-0.5" transform="matrix(-0.675929 0.736966 0.675929 0.736966 766 -195)" stroke="#271850"/>
<line y1="-0.5" x2="442.354" y2="-0.5" transform="matrix(-0.675929 0.736966 0.675929 0.736966 776 -195)" stroke="#271850"/>
<line y1="-0.5" x2="442.354" y2="-0.5" transform="matrix(-0.675929 0.736966 0.675929 0.736966 786 -195)" stroke="#271850"/>
<line y1="-0.5" x2="442.354" y2="-0.5" transform="matrix(-0.675929 0.736966 0.675929 0.736966 796 -195)" stroke="#271850"/>
<line y1="-0.5" x2="442.354" y2="-0.5" transform="matrix(-0.675929 0.736966 0.675929 0.736966 806 -195)" stroke="#271850"/>
<line y1="-0.5" x2="442.354" y2="-0.5" transform="matrix(-0.675929 0.736966 0.675929 0.736966 816 -195)" stroke="#271850"/>
<line y1="-0.5" x2="442.354" y2="-0.5" transform="matrix(-0.675929 0.736966 0.675929 0.736966 826 -195)" stroke="#271850"/>
<line y1="-0.5" x2="442.354" y2="-0.5" transform="matrix(-0.675929 0.736966 0.675929 0.736966 836 -195)" stroke="#271850"/>
<line y1="-0.5" x2="442.354" y2="-0.5" transform="matrix(-0.675929 0.736966 0.675929 0.736966 846 -195)" stroke="#271850"/>
<line y1="-0.5" x2="442.354" y2="-0.5" transform="matrix(-0.675929 0.736966 0.675929 0.736966 856 -195)" stroke="#271850"/>
<line y1="-0.5" x2="442.354" y2="-0.5" transform="matrix(-0.675929 0.736966 0.675929 0.736966 866 -195)" stroke="#271850"/>
<line y1="-0.5" x2="442.354" y2="-0.5" transform="matrix(-0.675929 0.736966 0.675929 0.736966 876 -195)" stroke="#271850"/>
<line y1="-0.5" x2="442.354" y2="-0.5" transform="matrix(-0.675929 0.736966 0.675929 0.736966 886 -195)" stroke="#271850"/>
<line y1="-0.5" x2="442.354" y2="-0.5" transform="matrix(-0.675929 0.736966 0.675929 0.736966 896 -195)" stroke="#271850"/>
<line y1="-0.5" x2="442.354" y2="-0.5" transform="matrix(-0.675929 0.736966 0.675929 0.736966 906 -195)" stroke="#271850"/>
<line y1="-0.5" x2="442.354" y2="-0.5" transform="matrix(-0.675929 0.736966 0.675929 0.736966 916 -195)" stroke="#271850"/>
<line y1="-0.5" x2="442.354" y2="-0.5" transform="matrix(-0.675929 0.736966 0.675929 0.736966 926 -195)" stroke="#271850"/>
<line y1="-0.5" x2="442.354" y2="-0.5" transform="matrix(-0.675929 0.736966 0.675929 0.736966 936 -195)" stroke="#271850"/>
<line y1="-0.5" x2="442.354" y2="-0.5" transform="matrix(-0.675929 0.736966 0.675929 0.736966 946 -195)" stroke="#271850"/>
<line y1="-0.5" x2="442.354" y2="-0.5" transform="matrix(-0.675929 0.736966 0.675929 0.736966 956 -195)" stroke="#271850"/>
<line y1="-0.5" x2="442.354" y2="-0.5" transform="matrix(-0.675929 0.736966 0.675929 0.736966 966 -195)" stroke="#271850"/>
<line y1="-0.5" x2="442.354" y2="-0.5" transform="matrix(-0.675929 0.736966 0.675929 0.736966 976 -195)" stroke="#271850"/>
<line y1="-0.5" x2="442.354" y2="-0.5" transform="matrix(-0.675929 0.736966 0.675929 0.736966 986 -195)" stroke="#271850"/>
<line y1="-0.5" x2="442.354" y2="-0.5" transform="matrix(-0.675929 0.736966 0.675929 0.736966 996 -195)" stroke="#271850"/>
<line y1="-0.5" x2="442.354" y2="-0.5" transform="matrix(-0.675929 0.736966 0.675929 0.736966 1006 -195)" stroke="#271850"/>
<line y1="-0.5" x2="442.354" y2="-0.5" transform="matrix(-0.675929 0.736966 0.675929 0.736966 1016 -195)" stroke="#271850"/>
<line y1="-0.5" x2="442.354" y2="-0.5" transform="matrix(-0.675929 0.736966 0.675929 0.736966 1026 -195)" stroke="#271850"/>
<line y1="-0.5" x2="442.354" y2="-0.5" transform="matrix(-0.675929 0.736966 0.675929 0.736966 1036 -195)" stroke="#271850"/>
<line y1="-0.5" x2="442.354" y2="-0.5" transform="matrix(-0.675929 0.736966 0.675929 0.736966 2055 -195)" stroke="#271850"/>
<line y1="-0.5" x2="442.354" y2="-0.5" transform="matrix(-0.675929 0.736966 0.675929 0.736966 2065 -195)" stroke="#271850"/>
<line y1="-0.5" x2="442.354" y2="-0.5" transform="matrix(-0.675929 0.736966 0.675929 0.736966 2075 -195)" stroke="#271850"/>
<line y1="-0.5" x2="442.354" y2="-0.5" transform="matrix(-0.675929 0.736966 0.675929 0.736966 2085 -195)" stroke="#271850"/>
<line y1="-0.5" x2="442.354" y2="-0.5" transform="matrix(-0.675929 0.736966 0.675929 0.736966 2095 -195)" stroke="#271850"/>
<line y1="-0.5" x2="442.354" y2="-0.5" transform="matrix(-0.675929 0.736966 0.675929 0.736966 2105 -195)" stroke="#271850"/>
<line y1="-0.5" x2="442.354" y2="-0.5" transform="matrix(-0.675929 0.736966 0.675929 0.736966 2115 -195)" stroke="#271850"/>
<line y1="-0.5" x2="442.354" y2="-0.5" transform="matrix(-0.675929 0.736966 0.675929 0.736966 2125 -195)" stroke="#271850"/>
<line y1="-0.5" x2="442.354" y2="-0.5" transform="matrix(-0.675929 0.736966 0.675929 0.736966 2135 -195)" stroke="#271850"/>
<line y1="-0.5" x2="442.354" y2="-0.5" transform="matrix(-0.675929 0.736966 0.675929 0.736966 2145 -195)" stroke="#271850"/>
<line y1="-0.5" x2="442.354" y2="-0.5" transform="matrix(-0.675929 0.736966 0.675929 0.736966 2155 -195)" stroke="#271850"/>
<line y1="-0.5" x2="442.354" y2="-0.5" transform="matrix(-0.675929 0.736966 0.675929 0.736966 2165 -195)" stroke="#271850"/>
<line y1="-0.5" x2="442.354" y2="-0.5" transform="matrix(-0.675929 0.736966 0.675929 0.736966 2175 -195)" stroke="#271850"/>
<line y1="-0.5" x2="442.354" y2="-0.5" transform="matrix(-0.675929 0.736966 0.675929 0.736966 2185 -195)" stroke="#271850"/>
<line y1="-0.5" x2="442.354" y2="-0.5" transform="matrix(-0.675929 0.736966 0.675929 0.736966 2195 -195)" stroke="#271850"/>
<line y1="-0.5" x2="442.354" y2="-0.5" transform="matrix(-0.675929 0.736966 0.675929 0.736966 2205 -195)" stroke="#271850"/>
<line y1="-0.5" x2="442.354" y2="-0.5" transform="matrix(-0.675929 0.736966 0.675929 0.736966 2215 -195)" stroke="#271850"/>
</g>
<defs>
<clipPath id="clip0_225_2031">
<rect width="120" height="1920" fill="white" transform="matrix(4.37114e-08 1 1 -4.37114e-08 0 0)"/>
</clipPath>
</defs>
</svg>
