<svg width="380" height="50" viewBox="0 0 380 50" fill="none" xmlns="http://www.w3.org/2000/svg">
<line y1="-0.5" x2="442.354" y2="-0.5" transform="matrix(0.675929 -0.736966 -0.675929 -0.736966 254 287)" stroke="#00AFE4"/>
<line y1="-0.5" x2="442.354" y2="-0.5" transform="matrix(0.675929 -0.736966 -0.675929 -0.736966 244 287)" stroke="#00AFE4"/>
<line y1="-0.5" x2="442.354" y2="-0.5" transform="matrix(0.675929 -0.736966 -0.675929 -0.736966 234 287)" stroke="#00AFE4"/>
<line y1="-0.5" x2="442.354" y2="-0.5" transform="matrix(0.675929 -0.736966 -0.675929 -0.736966 224 287)" stroke="#00AFE4"/>
<line y1="-0.5" x2="442.354" y2="-0.5" transform="matrix(0.675929 -0.736966 -0.675929 -0.736966 214 287)" stroke="#00AFE4"/>
<line y1="-0.5" x2="442.354" y2="-0.5" transform="matrix(0.675929 -0.736966 -0.675929 -0.736966 204 287)" stroke="#00AFE4"/>
<line y1="-0.5" x2="442.354" y2="-0.5" transform="matrix(0.675929 -0.736966 -0.675929 -0.736966 194 287)" stroke="#00AFE4"/>
<line y1="-0.5" x2="442.354" y2="-0.5" transform="matrix(0.675929 -0.736966 -0.675929 -0.736966 184 287)" stroke="#00AFE4"/>
<line y1="-0.5" x2="442.354" y2="-0.5" transform="matrix(0.675929 -0.736966 -0.675929 -0.736966 174 287)" stroke="#00AFE4"/>
<line y1="-0.5" x2="442.354" y2="-0.5" transform="matrix(0.675929 -0.736966 -0.675929 -0.736966 164 287)" stroke="#00AFE4"/>
<line y1="-0.5" x2="442.354" y2="-0.5" transform="matrix(0.675929 -0.736966 -0.675929 -0.736966 154 287)" stroke="#00AFE4"/>
<line y1="-0.5" x2="442.354" y2="-0.5" transform="matrix(0.675929 -0.736966 -0.675929 -0.736966 144 287)" stroke="#00AFE4"/>
<line y1="-0.5" x2="442.354" y2="-0.5" transform="matrix(0.675929 -0.736966 -0.675929 -0.736966 134 287)" stroke="#00AFE4"/>
<line y1="-0.5" x2="442.354" y2="-0.5" transform="matrix(0.675929 -0.736966 -0.675929 -0.736966 124 287)" stroke="#00AFE4"/>
<line y1="-0.5" x2="442.354" y2="-0.5" transform="matrix(0.675929 -0.736966 -0.675929 -0.736966 114 287)" stroke="#00AFE4"/>
<line y1="-0.5" x2="442.354" y2="-0.5" transform="matrix(0.675929 -0.736966 -0.675929 -0.736966 104 287)" stroke="#00AFE4"/>
<line y1="-0.5" x2="442.354" y2="-0.5" transform="matrix(0.675929 -0.736966 -0.675929 -0.736966 94 287)" stroke="#00AFE4"/>
<line y1="-0.5" x2="442.354" y2="-0.5" transform="matrix(0.675929 -0.736966 -0.675929 -0.736966 84 287)" stroke="#00AFE4"/>
<line y1="-0.5" x2="442.354" y2="-0.5" transform="matrix(0.675929 -0.736966 -0.675929 -0.736966 74 287)" stroke="#00AFE4"/>
<line y1="-0.5" x2="442.354" y2="-0.5" transform="matrix(0.675929 -0.736966 -0.675929 -0.736966 64 287)" stroke="#00AFE4"/>
<line y1="-0.5" x2="442.354" y2="-0.5" transform="matrix(0.675929 -0.736966 -0.675929 -0.736966 54 287)" stroke="#00AFE4"/>
<line y1="-0.5" x2="442.354" y2="-0.5" transform="matrix(0.675929 -0.736966 -0.675929 -0.736966 44 287)" stroke="#00AFE4"/>
<line y1="-0.5" x2="442.354" y2="-0.5" transform="matrix(0.675929 -0.736966 -0.675929 -0.736966 34 287)" stroke="#00AFE4"/>
<line y1="-0.5" x2="442.354" y2="-0.5" transform="matrix(0.675929 -0.736966 -0.675929 -0.736966 24 287)" stroke="#00AFE4"/>
<line y1="-0.5" x2="442.354" y2="-0.5" transform="matrix(0.675929 -0.736966 -0.675929 -0.736966 14 287)" stroke="#00AFE4"/>
<line y1="-0.5" x2="442.354" y2="-0.5" transform="matrix(0.675929 -0.736966 -0.675929 -0.736966 4 287)" stroke="#00AFE4"/>
<line y1="-0.5" x2="442.354" y2="-0.5" transform="matrix(0.675929 -0.736966 -0.675929 -0.736966 -6 287)" stroke="#00AFE4"/>
<line y1="-0.5" x2="442.354" y2="-0.5" transform="matrix(0.675929 -0.736966 -0.675929 -0.736966 -16 287)" stroke="#00AFE4"/>
<line y1="-0.5" x2="442.354" y2="-0.5" transform="matrix(0.675929 -0.736966 -0.675929 -0.736966 -26 287)" stroke="#00AFE4"/>
<line y1="-0.5" x2="442.354" y2="-0.5" transform="matrix(0.675929 -0.736966 -0.675929 -0.736966 -36 287)" stroke="#00AFE4"/>
<line y1="-0.5" x2="442.354" y2="-0.5" transform="matrix(0.675929 -0.736966 -0.675929 -0.736966 -46 287)" stroke="#00AFE4"/>
<line y1="-0.5" x2="442.354" y2="-0.5" transform="matrix(0.675929 -0.736966 -0.675929 -0.736966 -56 287)" stroke="#00AFE4"/>
<line y1="-0.5" x2="442.354" y2="-0.5" transform="matrix(0.675929 -0.736966 -0.675929 -0.736966 -66 287)" stroke="#00AFE4"/>
<line y1="-0.5" x2="442.354" y2="-0.5" transform="matrix(0.675929 -0.736966 -0.675929 -0.736966 -76 287)" stroke="#00AFE4"/>
<line y1="-0.5" x2="442.354" y2="-0.5" transform="matrix(0.675929 -0.736966 -0.675929 -0.736966 -86 287)" stroke="#00AFE4"/>
<line y1="-0.5" x2="442.354" y2="-0.5" transform="matrix(0.675929 -0.736966 -0.675929 -0.736966 -96 287)" stroke="#00AFE4"/>
<line y1="-0.5" x2="442.354" y2="-0.5" transform="matrix(0.675929 -0.736966 -0.675929 -0.736966 -106 287)" stroke="#00AFE4"/>
<line y1="-0.5" x2="442.354" y2="-0.5" transform="matrix(0.675929 -0.736966 -0.675929 -0.736966 -116 287)" stroke="#00AFE4"/>
<line y1="-0.5" x2="442.354" y2="-0.5" transform="matrix(0.675929 -0.736966 -0.675929 -0.736966 -126 287)" stroke="#00AFE4"/>
<line y1="-0.5" x2="442.354" y2="-0.5" transform="matrix(0.675929 -0.736966 -0.675929 -0.736966 -136 287)" stroke="#00AFE4"/>
<line y1="-0.5" x2="442.354" y2="-0.5" transform="matrix(0.675929 -0.736966 -0.675929 -0.736966 -146 287)" stroke="#00AFE4"/>
<line y1="-0.5" x2="442.354" y2="-0.5" transform="matrix(0.675929 -0.736966 -0.675929 -0.736966 -156 287)" stroke="#00AFE4"/>
<line y1="-0.5" x2="442.354" y2="-0.5" transform="matrix(0.675929 -0.736966 -0.675929 -0.736966 -166 287)" stroke="#00AFE4"/>
<line y1="-0.5" x2="442.354" y2="-0.5" transform="matrix(0.675929 -0.736966 -0.675929 -0.736966 -176 287)" stroke="#00AFE4"/>
<line y1="-0.5" x2="442.354" y2="-0.5" transform="matrix(0.675929 -0.736966 -0.675929 -0.736966 -186 287)" stroke="#00AFE4"/>
<line y1="-0.5" x2="442.354" y2="-0.5" transform="matrix(0.675929 -0.736966 -0.675929 -0.736966 -196 287)" stroke="#00AFE4"/>
<line y1="-0.5" x2="442.354" y2="-0.5" transform="matrix(0.675929 -0.736966 -0.675929 -0.736966 -206 287)" stroke="#00AFE4"/>
<line y1="-0.5" x2="442.354" y2="-0.5" transform="matrix(0.675929 -0.736966 -0.675929 -0.736966 -216 287)" stroke="#00AFE4"/>
<line y1="-0.5" x2="442.354" y2="-0.5" transform="matrix(0.675929 -0.736966 -0.675929 -0.736966 -226 287)" stroke="#00AFE4"/>
<line y1="-0.5" x2="442.354" y2="-0.5" transform="matrix(0.675929 -0.736966 -0.675929 -0.736966 -236 287)" stroke="#00AFE4"/>
<line y1="-0.5" x2="442.354" y2="-0.5" transform="matrix(0.675929 -0.736966 -0.675929 -0.736966 -246 287)" stroke="#00AFE4"/>
<line y1="-0.5" x2="442.354" y2="-0.5" transform="matrix(0.675929 -0.736966 -0.675929 -0.736966 -256 287)" stroke="#00AFE4"/>
<line y1="-0.5" x2="442.354" y2="-0.5" transform="matrix(0.675929 -0.736966 -0.675929 -0.736966 -266 287)" stroke="#00AFE4"/>
<line y1="-0.5" x2="442.354" y2="-0.5" transform="matrix(0.675929 -0.736966 -0.675929 -0.736966 -276 287)" stroke="#00AFE4"/>
<line y1="-0.5" x2="442.354" y2="-0.5" transform="matrix(0.675929 -0.736966 -0.675929 -0.736966 -286 287)" stroke="#00AFE4"/>
<line y1="-0.5" x2="442.354" y2="-0.5" transform="matrix(0.675929 -0.736966 -0.675929 -0.736966 -296 287)" stroke="#00AFE4"/>
</svg>
