<svg width="50" height="174" viewBox="0 0 50 174" fill="none" xmlns="http://www.w3.org/2000/svg">
<line y1="-0.5" x2="442.354" y2="-0.5" transform="matrix(0.736966 -0.675929 0.736966 0.675929 -237 5)" stroke="#00AFE4"/>
<line y1="-0.5" x2="442.354" y2="-0.5" transform="matrix(0.736966 -0.675929 0.736966 0.675929 -237 15)" stroke="#00AFE4"/>
<line y1="-0.5" x2="442.354" y2="-0.5" transform="matrix(0.736966 -0.675929 0.736966 0.675929 -237 25)" stroke="#00AFE4"/>
<line y1="-0.5" x2="442.354" y2="-0.5" transform="matrix(0.736966 -0.675929 0.736966 0.675929 -237 35)" stroke="#00AFE4"/>
<line y1="-0.5" x2="442.354" y2="-0.5" transform="matrix(0.736966 -0.675929 0.736966 0.675929 -237 45)" stroke="#00AFE4"/>
<line y1="-0.5" x2="442.354" y2="-0.5" transform="matrix(0.736966 -0.675929 0.736966 0.675929 -237 55)" stroke="#00AFE4"/>
<line y1="-0.5" x2="442.354" y2="-0.5" transform="matrix(0.736966 -0.675929 0.736966 0.675929 -237 65)" stroke="#00AFE4"/>
<line y1="-0.5" x2="442.354" y2="-0.5" transform="matrix(0.736966 -0.675929 0.736966 0.675929 -237 75)" stroke="#00AFE4"/>
<line y1="-0.5" x2="442.354" y2="-0.5" transform="matrix(0.736966 -0.675929 0.736966 0.675929 -237 85)" stroke="#00AFE4"/>
<line y1="-0.5" x2="442.354" y2="-0.5" transform="matrix(0.736966 -0.675929 0.736966 0.675929 -237 95)" stroke="#00AFE4"/>
<line y1="-0.5" x2="442.354" y2="-0.5" transform="matrix(0.736966 -0.675929 0.736966 0.675929 -237 105)" stroke="#00AFE4"/>
<line y1="-0.5" x2="442.354" y2="-0.5" transform="matrix(0.736966 -0.675929 0.736966 0.675929 -237 115)" stroke="#00AFE4"/>
<line y1="-0.5" x2="442.354" y2="-0.5" transform="matrix(0.736966 -0.675929 0.736966 0.675929 -237 125)" stroke="#00AFE4"/>
<line y1="-0.5" x2="442.354" y2="-0.5" transform="matrix(0.736966 -0.675929 0.736966 0.675929 -237 135)" stroke="#00AFE4"/>
<line y1="-0.5" x2="442.354" y2="-0.5" transform="matrix(0.736966 -0.675929 0.736966 0.675929 -237 145)" stroke="#00AFE4"/>
<line y1="-0.5" x2="442.354" y2="-0.5" transform="matrix(0.736966 -0.675929 0.736966 0.675929 -237 155)" stroke="#00AFE4"/>
<line y1="-0.5" x2="442.354" y2="-0.5" transform="matrix(0.736966 -0.675929 0.736966 0.675929 -237 165)" stroke="#00AFE4"/>
<line y1="-0.5" x2="442.354" y2="-0.5" transform="matrix(0.736966 -0.675929 0.736966 0.675929 -237 175)" stroke="#00AFE4"/>
<line y1="-0.5" x2="442.354" y2="-0.5" transform="matrix(0.736966 -0.675929 0.736966 0.675929 -237 185)" stroke="#00AFE4"/>
<line y1="-0.5" x2="442.354" y2="-0.5" transform="matrix(0.736966 -0.675929 0.736966 0.675929 -237 195)" stroke="#00AFE4"/>
<line y1="-0.5" x2="442.354" y2="-0.5" transform="matrix(0.736966 -0.675929 0.736966 0.675929 -237 205)" stroke="#00AFE4"/>
<line y1="-0.5" x2="442.354" y2="-0.5" transform="matrix(0.736966 -0.675929 0.736966 0.675929 -237 215)" stroke="#00AFE4"/>
<line y1="-0.5" x2="442.354" y2="-0.5" transform="matrix(0.736966 -0.675929 0.736966 0.675929 -237 225)" stroke="#00AFE4"/>
<line y1="-0.5" x2="442.354" y2="-0.5" transform="matrix(0.736966 -0.675929 0.736966 0.675929 -237 235)" stroke="#00AFE4"/>
<line y1="-0.5" x2="442.354" y2="-0.5" transform="matrix(0.736966 -0.675929 0.736966 0.675929 -237 245)" stroke="#00AFE4"/>
<line y1="-0.5" x2="442.354" y2="-0.5" transform="matrix(0.736966 -0.675929 0.736966 0.675929 -237 255)" stroke="#00AFE4"/>
<line y1="-0.5" x2="442.354" y2="-0.5" transform="matrix(0.736966 -0.675929 0.736966 0.675929 -237 265)" stroke="#00AFE4"/>
<line y1="-0.5" x2="442.354" y2="-0.5" transform="matrix(0.736966 -0.675929 0.736966 0.675929 -237 275)" stroke="#00AFE4"/>
<line y1="-0.5" x2="442.354" y2="-0.5" transform="matrix(0.736966 -0.675929 0.736966 0.675929 -237 285)" stroke="#00AFE4"/>
<line y1="-0.5" x2="442.354" y2="-0.5" transform="matrix(0.736966 -0.675929 0.736966 0.675929 -237 295)" stroke="#00AFE4"/>
<line y1="-0.5" x2="442.354" y2="-0.5" transform="matrix(0.736966 -0.675929 0.736966 0.675929 -237 305)" stroke="#00AFE4"/>
<line y1="-0.5" x2="442.354" y2="-0.5" transform="matrix(0.736966 -0.675929 0.736966 0.675929 -237 315)" stroke="#00AFE4"/>
<line y1="-0.5" x2="442.354" y2="-0.5" transform="matrix(0.736966 -0.675929 0.736966 0.675929 -237 325)" stroke="#00AFE4"/>
<line y1="-0.5" x2="442.354" y2="-0.5" transform="matrix(0.736966 -0.675929 0.736966 0.675929 -237 335)" stroke="#00AFE4"/>
<line y1="-0.5" x2="442.354" y2="-0.5" transform="matrix(0.736966 -0.675929 0.736966 0.675929 -237 345)" stroke="#00AFE4"/>
<line y1="-0.5" x2="442.354" y2="-0.5" transform="matrix(0.736966 -0.675929 0.736966 0.675929 -237 355)" stroke="#00AFE4"/>
<line y1="-0.5" x2="442.354" y2="-0.5" transform="matrix(0.736966 -0.675929 0.736966 0.675929 -237 365)" stroke="#00AFE4"/>
<line y1="-0.5" x2="442.354" y2="-0.5" transform="matrix(0.736966 -0.675929 0.736966 0.675929 -237 375)" stroke="#00AFE4"/>
<line y1="-0.5" x2="442.354" y2="-0.5" transform="matrix(0.736966 -0.675929 0.736966 0.675929 -237 385)" stroke="#00AFE4"/>
<line y1="-0.5" x2="442.354" y2="-0.5" transform="matrix(0.736966 -0.675929 0.736966 0.675929 -237 395)" stroke="#00AFE4"/>
<line y1="-0.5" x2="442.354" y2="-0.5" transform="matrix(0.736966 -0.675929 0.736966 0.675929 -237 405)" stroke="#00AFE4"/>
<line y1="-0.5" x2="442.354" y2="-0.5" transform="matrix(0.736966 -0.675929 0.736966 0.675929 -237 415)" stroke="#00AFE4"/>
<line y1="-0.5" x2="442.354" y2="-0.5" transform="matrix(0.736966 -0.675929 0.736966 0.675929 -237 425)" stroke="#00AFE4"/>
<line y1="-0.5" x2="442.354" y2="-0.5" transform="matrix(0.736966 -0.675929 0.736966 0.675929 -237 435)" stroke="#00AFE4"/>
<line y1="-0.5" x2="442.354" y2="-0.5" transform="matrix(0.736966 -0.675929 0.736966 0.675929 -237 445)" stroke="#00AFE4"/>
<line y1="-0.5" x2="442.354" y2="-0.5" transform="matrix(0.736966 -0.675929 0.736966 0.675929 -237 455)" stroke="#00AFE4"/>
<line y1="-0.5" x2="442.354" y2="-0.5" transform="matrix(0.736966 -0.675929 0.736966 0.675929 -237 465)" stroke="#00AFE4"/>
</svg>
