<svg width="61" height="80" viewBox="0 0 61 80" fill="none" xmlns="http://www.w3.org/2000/svg">
<path d="M30.5 0C13.6828 0 0 13.6688 0 30.4688C0 37.1172 2.10215 43.4344 6.08436 48.7344L28.6199 79.0548C28.6763 79.1283 28.7623 79.1564 28.8248 79.222C29.951 80.4267 31.5761 80.1236 32.3785 79.0548C38.868 70.4048 50.763 54.25 55.3364 48.1563C55.3364 48.1563 55.338 48.1516 55.3395 48.1484L55.3677 48.1109C59.0527 42.9391 61 36.8391 61 30.4688C61 13.6688 47.3172 0 30.5 0ZM30.5 46.9063C21.4454 46.9063 14.0456 39.5141 14.0456 30.4688C14.0456 21.4234 21.4454 14.0313 30.5 14.0313C39.5546 14.0313 46.9544 21.4234 46.9544 30.4688C46.9544 39.5141 39.5546 46.9063 30.5 46.9063Z" fill="#00AFE4"/>
</svg>
