<svg width="40" height="531" viewBox="0 0 40 531" fill="none" xmlns="http://www.w3.org/2000/svg">
<g opacity="0.3" clip-path="url(#clip0_119_634)">
<line y1="-0.5" x2="442.354" y2="-0.5" transform="matrix(0.736966 -0.675929 0.736966 0.675929 -274 33)" stroke="white"/>
<line y1="-0.5" x2="442.354" y2="-0.5" transform="matrix(0.736966 -0.675929 0.736966 0.675929 -274 43)" stroke="white"/>
<line y1="-0.5" x2="442.354" y2="-0.5" transform="matrix(0.736966 -0.675929 0.736966 0.675929 -274 53)" stroke="white"/>
<line y1="-0.5" x2="442.354" y2="-0.5" transform="matrix(0.736966 -0.675929 0.736966 0.675929 -274 63)" stroke="white"/>
<line y1="-0.5" x2="442.354" y2="-0.5" transform="matrix(0.736966 -0.675929 0.736966 0.675929 -274 73)" stroke="white"/>
<line y1="-0.5" x2="442.354" y2="-0.5" transform="matrix(0.736966 -0.675929 0.736966 0.675929 -274 83)" stroke="white"/>
<line y1="-0.5" x2="442.354" y2="-0.5" transform="matrix(0.736966 -0.675929 0.736966 0.675929 -274 93)" stroke="white"/>
<line y1="-0.5" x2="442.354" y2="-0.5" transform="matrix(0.736966 -0.675929 0.736966 0.675929 -274 103)" stroke="white"/>
<line y1="-0.5" x2="442.354" y2="-0.5" transform="matrix(0.736966 -0.675929 0.736966 0.675929 -274 113)" stroke="white"/>
<line y1="-0.5" x2="442.354" y2="-0.5" transform="matrix(0.736966 -0.675929 0.736966 0.675929 -274 123)" stroke="white"/>
<line y1="-0.5" x2="442.354" y2="-0.5" transform="matrix(0.736966 -0.675929 0.736966 0.675929 -274 133)" stroke="white"/>
<line y1="-0.5" x2="442.354" y2="-0.5" transform="matrix(0.736966 -0.675929 0.736966 0.675929 -274 143)" stroke="white"/>
<line y1="-0.5" x2="442.354" y2="-0.5" transform="matrix(0.736966 -0.675929 0.736966 0.675929 -274 153)" stroke="white"/>
<line y1="-0.5" x2="442.354" y2="-0.5" transform="matrix(0.736966 -0.675929 0.736966 0.675929 -274 163)" stroke="white"/>
<line y1="-0.5" x2="442.354" y2="-0.5" transform="matrix(0.736966 -0.675929 0.736966 0.675929 -274 173)" stroke="white"/>
<line y1="-0.5" x2="442.354" y2="-0.5" transform="matrix(0.736966 -0.675929 0.736966 0.675929 -274 183)" stroke="white"/>
<line y1="-0.5" x2="442.354" y2="-0.5" transform="matrix(0.736966 -0.675929 0.736966 0.675929 -274 193)" stroke="white"/>
<line y1="-0.5" x2="442.354" y2="-0.5" transform="matrix(0.736966 -0.675929 0.736966 0.675929 -274 203)" stroke="white"/>
<line y1="-0.5" x2="442.354" y2="-0.5" transform="matrix(0.736966 -0.675929 0.736966 0.675929 -274 213)" stroke="white"/>
<line y1="-0.5" x2="442.354" y2="-0.5" transform="matrix(0.736966 -0.675929 0.736966 0.675929 -274 223)" stroke="white"/>
<line y1="-0.5" x2="442.354" y2="-0.5" transform="matrix(0.736966 -0.675929 0.736966 0.675929 -274 233)" stroke="white"/>
<line y1="-0.5" x2="442.354" y2="-0.5" transform="matrix(0.736966 -0.675929 0.736966 0.675929 -274 243)" stroke="white"/>
<line y1="-0.5" x2="442.354" y2="-0.5" transform="matrix(0.736966 -0.675929 0.736966 0.675929 -274 253)" stroke="white"/>
<line y1="-0.5" x2="442.354" y2="-0.5" transform="matrix(0.736966 -0.675929 0.736966 0.675929 -274 263)" stroke="white"/>
<line y1="-0.5" x2="442.354" y2="-0.5" transform="matrix(0.736966 -0.675929 0.736966 0.675929 -274 273)" stroke="white"/>
<line y1="-0.5" x2="442.354" y2="-0.5" transform="matrix(0.736966 -0.675929 0.736966 0.675929 -274 283)" stroke="white"/>
<line y1="-0.5" x2="442.354" y2="-0.5" transform="matrix(0.736966 -0.675929 0.736966 0.675929 -274 293)" stroke="white"/>
<line y1="-0.5" x2="442.354" y2="-0.5" transform="matrix(0.736966 -0.675929 0.736966 0.675929 -274 303)" stroke="white"/>
<line y1="-0.5" x2="442.354" y2="-0.5" transform="matrix(0.736966 -0.675929 0.736966 0.675929 -274 313)" stroke="white"/>
<line y1="-0.5" x2="442.354" y2="-0.5" transform="matrix(0.736966 -0.675929 0.736966 0.675929 -274 323)" stroke="white"/>
<line y1="-0.5" x2="442.354" y2="-0.5" transform="matrix(0.736966 -0.675929 0.736966 0.675929 -274 333)" stroke="white"/>
<line y1="-0.5" x2="442.354" y2="-0.5" transform="matrix(0.736966 -0.675929 0.736966 0.675929 -274 343)" stroke="white"/>
<line y1="-0.5" x2="442.354" y2="-0.5" transform="matrix(0.736966 -0.675929 0.736966 0.675929 -274 353)" stroke="white"/>
<line y1="-0.5" x2="442.354" y2="-0.5" transform="matrix(0.736966 -0.675929 0.736966 0.675929 -274 363)" stroke="white"/>
<line y1="-0.5" x2="442.354" y2="-0.5" transform="matrix(0.736966 -0.675929 0.736966 0.675929 -274 373)" stroke="white"/>
<line y1="-0.5" x2="442.354" y2="-0.5" transform="matrix(0.736966 -0.675929 0.736966 0.675929 -274 383)" stroke="white"/>
<line y1="-0.5" x2="442.354" y2="-0.5" transform="matrix(0.736966 -0.675929 0.736966 0.675929 -274 393)" stroke="white"/>
<line y1="-0.5" x2="442.354" y2="-0.5" transform="matrix(0.736966 -0.675929 0.736966 0.675929 -274 403)" stroke="white"/>
<line y1="-0.5" x2="442.354" y2="-0.5" transform="matrix(0.736966 -0.675929 0.736966 0.675929 -274 413)" stroke="white"/>
<line y1="-0.5" x2="442.354" y2="-0.5" transform="matrix(0.736966 -0.675929 0.736966 0.675929 -274 423)" stroke="white"/>
<line y1="-0.5" x2="442.354" y2="-0.5" transform="matrix(0.736966 -0.675929 0.736966 0.675929 -274 433)" stroke="white"/>
<line y1="-0.5" x2="442.354" y2="-0.5" transform="matrix(0.736966 -0.675929 0.736966 0.675929 -274 443)" stroke="white"/>
<line y1="-0.5" x2="442.354" y2="-0.5" transform="matrix(0.736966 -0.675929 0.736966 0.675929 -274 453)" stroke="white"/>
<line y1="-0.5" x2="442.354" y2="-0.5" transform="matrix(0.736966 -0.675929 0.736966 0.675929 -274 463)" stroke="white"/>
<line y1="-0.5" x2="442.354" y2="-0.5" transform="matrix(0.736966 -0.675929 0.736966 0.675929 -274 473)" stroke="white"/>
<line y1="-0.5" x2="442.354" y2="-0.5" transform="matrix(0.736966 -0.675929 0.736966 0.675929 -274 483)" stroke="white"/>
<line y1="-0.5" x2="442.354" y2="-0.5" transform="matrix(0.736966 -0.675929 0.736966 0.675929 -274 493)" stroke="white"/>
<line y1="-0.5" x2="442.354" y2="-0.5" transform="matrix(0.736966 -0.675929 0.736966 0.675929 -274 503)" stroke="white"/>
<line y1="-0.5" x2="442.354" y2="-0.5" transform="matrix(0.736966 -0.675929 0.736966 0.675929 -274 513)" stroke="white"/>
<line y1="-0.5" x2="442.354" y2="-0.5" transform="matrix(0.736966 -0.675929 0.736966 0.675929 -274 523)" stroke="white"/>
<line y1="-0.5" x2="442.354" y2="-0.5" transform="matrix(0.736966 -0.675929 0.736966 0.675929 -274 533)" stroke="white"/>
<line y1="-0.5" x2="442.354" y2="-0.5" transform="matrix(0.736966 -0.675929 0.736966 0.675929 -274 543)" stroke="white"/>
<line y1="-0.5" x2="442.354" y2="-0.5" transform="matrix(0.736966 -0.675929 0.736966 0.675929 -274 553)" stroke="white"/>
<line y1="-0.5" x2="442.354" y2="-0.5" transform="matrix(0.736966 -0.675929 0.736966 0.675929 -274 563)" stroke="white"/>
<line y1="-0.5" x2="442.354" y2="-0.5" transform="matrix(0.736966 -0.675929 0.736966 0.675929 -274 573)" stroke="white"/>
<line y1="-0.5" x2="442.354" y2="-0.5" transform="matrix(0.736966 -0.675929 0.736966 0.675929 -274 583)" stroke="white"/>
<line y1="-0.5" x2="442.354" y2="-0.5" transform="matrix(0.736966 -0.675929 0.736966 0.675929 -274 593)" stroke="white"/>
<line y1="-0.5" x2="442.354" y2="-0.5" transform="matrix(0.736966 -0.675929 0.736966 0.675929 -274 603)" stroke="white"/>
<line y1="-0.5" x2="442.354" y2="-0.5" transform="matrix(0.736966 -0.675929 0.736966 0.675929 -274 613)" stroke="white"/>
<line y1="-0.5" x2="442.354" y2="-0.5" transform="matrix(0.736966 -0.675929 0.736966 0.675929 -274 623)" stroke="white"/>
<line y1="-0.5" x2="442.354" y2="-0.5" transform="matrix(0.736966 -0.675929 0.736966 0.675929 -274 633)" stroke="white"/>
<line y1="-0.5" x2="442.354" y2="-0.5" transform="matrix(0.736966 -0.675929 0.736966 0.675929 -274 643)" stroke="white"/>
<line y1="-0.5" x2="442.354" y2="-0.5" transform="matrix(0.736966 -0.675929 0.736966 0.675929 -274 653)" stroke="white"/>
<line y1="-0.5" x2="442.354" y2="-0.5" transform="matrix(0.736966 -0.675929 0.736966 0.675929 -274 663)" stroke="white"/>
<line y1="-0.5" x2="442.354" y2="-0.5" transform="matrix(0.736966 -0.675929 0.736966 0.675929 -274 673)" stroke="white"/>
<line y1="-0.5" x2="442.354" y2="-0.5" transform="matrix(0.736966 -0.675929 0.736966 0.675929 -274 683)" stroke="white"/>
<line y1="-0.5" x2="442.354" y2="-0.5" transform="matrix(0.736966 -0.675929 0.736966 0.675929 -274 693)" stroke="white"/>
<line y1="-0.5" x2="442.354" y2="-0.5" transform="matrix(0.736966 -0.675929 0.736966 0.675929 -274 703)" stroke="white"/>
<line y1="-0.5" x2="442.354" y2="-0.5" transform="matrix(0.736966 -0.675929 0.736966 0.675929 -274 713)" stroke="white"/>
<line y1="-0.5" x2="442.354" y2="-0.5" transform="matrix(0.736966 -0.675929 0.736966 0.675929 -274 723)" stroke="white"/>
<line y1="-0.5" x2="442.354" y2="-0.5" transform="matrix(0.736966 -0.675929 0.736966 0.675929 -274 733)" stroke="white"/>
<line y1="-0.5" x2="442.354" y2="-0.5" transform="matrix(0.736966 -0.675929 0.736966 0.675929 -274 743)" stroke="white"/>
<line y1="-0.5" x2="442.354" y2="-0.5" transform="matrix(0.736966 -0.675929 0.736966 0.675929 -274 753)" stroke="white"/>
<line y1="-0.5" x2="442.354" y2="-0.5" transform="matrix(0.736966 -0.675929 0.736966 0.675929 -274 763)" stroke="white"/>
<line y1="-0.5" x2="442.354" y2="-0.5" transform="matrix(0.736966 -0.675929 0.736966 0.675929 -274 773)" stroke="white"/>
<line y1="-0.5" x2="442.354" y2="-0.5" transform="matrix(0.736966 -0.675929 0.736966 0.675929 -274 783)" stroke="white"/>
<line y1="-0.5" x2="442.354" y2="-0.5" transform="matrix(0.736966 -0.675929 0.736966 0.675929 -274 793)" stroke="white"/>
<line y1="-0.5" x2="442.354" y2="-0.5" transform="matrix(0.736966 -0.675929 0.736966 0.675929 -274 803)" stroke="white"/>
<line y1="-0.5" x2="442.354" y2="-0.5" transform="matrix(0.736966 -0.675929 0.736966 0.675929 -274 813)" stroke="white"/>
<line y1="-0.5" x2="442.354" y2="-0.5" transform="matrix(0.736966 -0.675929 0.736966 0.675929 -274 823)" stroke="white"/>
</g>
<defs>
<clipPath id="clip0_119_634">
<rect width="40" height="531" fill="white"/>
</clipPath>
</defs>
</svg>
