<svg width="50" height="50" viewBox="0 0 50 50" fill="none" xmlns="http://www.w3.org/2000/svg">
<g clip-path="url(#clip0_225_4274)">
<path d="M25 50C38.8071 50 50 38.8071 50 25C50 11.1929 38.8071 0 25 0C11.1929 0 0 11.1929 0 25C0 38.8071 11.1929 50 25 50Z" fill="#00AFE4"/>
<path d="M10.4046 24.7829C10.4046 24.7829 22.9046 19.6529 27.2398 17.8465C28.9017 17.124 34.5375 14.8118 34.5375 14.8118C34.5375 14.8118 37.1387 13.8003 36.9219 16.2569C36.8496 17.2685 36.2716 20.8089 35.6936 24.6384C34.8265 30.0575 33.8872 35.9823 33.8872 35.9823C33.8872 35.9823 33.7427 37.6442 32.5144 37.9332C31.2861 38.2222 29.2629 36.9217 28.9017 36.6326C28.6126 36.4159 23.4826 33.1644 21.604 31.5748C21.0982 31.1413 20.5202 30.2743 21.6762 29.2627C24.2774 26.8783 27.3843 23.9159 29.2629 22.0373C30.13 21.1702 30.997 19.1471 27.3843 21.6037C22.2543 25.1442 17.1965 28.4679 17.1965 28.4679C17.1965 28.4679 16.0404 29.1904 13.8728 28.5401C11.7051 27.8899 9.17622 27.0228 9.17622 27.0228C9.17622 27.0228 7.44222 25.939 10.4046 24.7829Z" fill="white"/>
</g>
<defs>
<clipPath id="clip0_225_4274">
<rect width="50" height="50" fill="white"/>
</clipPath>
</defs>
</svg>
