<svg width="29" height="24" viewBox="0 0 29 24" fill="none" xmlns="http://www.w3.org/2000/svg">
<path d="M2.40462 10.7829C2.40462 10.7829 14.9046 5.65286 19.2398 3.84646C20.9017 3.12396 26.5375 0.811759 26.5375 0.811759C26.5375 0.811759 29.1387 -0.199741 28.9219 2.25686C28.8496 3.26846 28.2716 6.80886 27.6936 10.6384C26.8265 16.0575 25.8872 21.9823 25.8872 21.9823C25.8872 21.9823 25.7427 23.6442 24.5144 23.9332C23.2861 24.2222 21.2629 22.9217 20.9017 22.6326C20.6126 22.4159 15.4826 19.1644 13.604 17.5748C13.0982 17.1413 12.5202 16.2743 13.6762 15.2627C16.2774 12.8783 19.3843 9.91586 21.2629 8.03726C22.13 7.17016 22.997 5.14706 19.3843 7.60366C14.2543 11.1442 9.19653 14.4679 9.19653 14.4679C9.19653 14.4679 8.04043 15.1904 5.87283 14.5401C3.70513 13.8899 1.17622 13.0228 1.17622 13.0228C1.17622 13.0228 -0.557776 11.939 2.40462 10.7829Z" fill="white"/>
</svg>
